<?xml version="1.0" encoding="UTF-8" standalone="no"?>
<!-- Created with Inkscape (http://www.inkscape.org/) -->

<svg
   xmlns:dc="http://purl.org/dc/elements/1.1/"
   xmlns:cc="http://creativecommons.org/ns#"
   xmlns:rdf="http://www.w3.org/1999/02/22-rdf-syntax-ns#"
   xmlns:svg="http://www.w3.org/2000/svg"
   xmlns="http://www.w3.org/2000/svg"
   xmlns:sodipodi="http://sodipodi.sourceforge.net/DTD/sodipodi-0.dtd"
   xmlns:inkscape="http://www.inkscape.org/namespaces/inkscape"
   width="400"
   height="200"
   viewBox="0 0 105.83333 52.916668"
   version="1.1"
   id="svg8"
   inkscape:version="0.92.4 (5da689c313, 2019-01-14)"
   sodipodi:docname="cerchiatura.svg">
  <defs
     id="defs2" />
  <sodipodi:namedview
     id="base"
     pagecolor="#ffffff"
     bordercolor="#666666"
     borderopacity="1.0"
     inkscape:pageopacity="0.0"
     inkscape:pageshadow="2"
     inkscape:zoom="0.49497475"
     inkscape:cx="444.27083"
     inkscape:cy="490.68318"
     inkscape:document-units="mm"
     inkscape:current-layer="layer1"
     showgrid="false"
     units="px"
     inkscape:window-width="1920"
     inkscape:window-height="1001"
     inkscape:window-x="-9"
     inkscape:window-y="-9"
     inkscape:window-maximized="1" />
  <metadata
     id="metadata5">
    <rdf:RDF>
      <cc:Work
         rdf:about="">
        <dc:format>image/svg+xml</dc:format>
        <dc:type
           rdf:resource="http://purl.org/dc/dcmitype/StillImage" />
        <dc:title></dc:title>
      </cc:Work>
    </rdf:RDF>
  </metadata>
  <g
     inkscape:label="Livello 1"
     inkscape:groupmode="layer"
     id="layer1"
     transform="translate(0,-244.08329)">
    <path
       style="fill:#000000;stroke-width:0.35277778"
       d="m 37.307071,290.48511 c -8.214115,-0.98814 -14.200241,-2.39955 -17.39179,-4.10062 -2.619652,-1.39626 -5.131767,-3.80405 -6.168624,-5.91244 l -0.780696,-1.5875 -2.78e-4,1.6757 c -1.53e-4,0.92163 -0.151835,1.67569 -0.337071,1.67569 -0.603565,0 -0.820782,-2.47928 -0.474481,-5.41566 0.250843,-2.12697 0.22719,-3.14987 -0.09094,-3.93295 -0.659953,-1.62446 -1.020634,-4.19683 -0.547448,-3.90438 0.215231,0.13302 0.391329,0.53965 0.391329,0.90362 0,0.36398 0.159834,1.08217 0.355187,1.59598 0.341247,0.89755 0.419265,0.81193 1.988027,-2.18189 2.066863,-3.94439 3.419984,-5.80395 6.003993,-8.25111 2.543073,-2.40839 3.694768,-3.11842 7.62939,-4.70357 7.341241,-2.95758 16.774152,-4.59032 26.533132,-4.5926 7.30843,-0.002 12.03965,0.57757 17.45194,2.13677 2.99014,0.86142 3.90486,1.25641 12.35778,5.33631 7.27694,3.51231 10.22941,6.82977 10.52356,11.82449 0.12557,2.13224 0.0186,2.64592 -0.96865,4.65131 -2.13053,4.32771 -6.04622,6.87442 -15.42926,10.03497 -10.15446,3.42038 -17.87749,4.61209 -30.990935,4.78208 -4.850692,0.0629 -9.375067,0.0475 -10.054165,-0.0342 z m 4.938889,-0.84083 c -0.291042,-0.18809 -0.8692,-0.34441 -1.284796,-0.34738 -1.485792,-0.0106 -8.079614,-1.48074 -11.393309,-2.54018 -6.226305,-1.99066 -11.681269,-5.28951 -14.382247,-8.69755 -1.961613,-2.47513 -1.979919,-2.48574 -1.757924,-1.01908 0.743083,4.90936 5.469901,8.64752 13.472442,10.65456 3.424222,0.8588 9.459073,1.80871 13.052778,2.05456 0.970139,0.0664 2.002014,0.14685 2.293056,0.17885 0.47037,0.0517 0.47037,0.0202 0,-0.28378 z m 17.336931,-1.06493 c 7.56807,-0.74445 16.86666,-2.99086 20.05752,-4.84561 5.43588,-3.15973 8.72399,-9.3164 7.7625,-14.53451 -0.72087,-3.9122 -3.89181,-8.49959 -7.1921,-10.40477 -7.01393,-4.04897 -26.64561,-5.29591 -41.525168,-2.63754 -2.055188,0.36718 -4.833313,1.00432 -6.173611,1.41587 -7.893103,2.42364 -15.217512,7.88085 -17.619705,13.12793 -1.482038,3.2372 -1.470538,3.74831 0.129899,5.77301 4.047796,5.12085 11.274717,8.69424 21.949935,10.85326 7.674927,1.55222 15.28006,1.97345 22.61073,1.25236 z m 27.58439,-7.84616 c 7.46791,-3.98036 8.86976,-11.39544 3.12447,-16.52687 -1.72075,-1.53689 -7.30845,-4.79405 -6.55427,-3.82059 3.24275,4.18561 4.27716,6.43443 4.60385,10.00887 0.33776,3.69559 -1.12044,7.61738 -4.02957,10.83744 l -1.2446,1.37762 1.0107,-0.38426 c 0.55589,-0.21135 1.94613,-0.88285 3.08942,-1.49221 z M 27.268037,258.38281 c 6.083883,-2.81092 14.243916,-4.27079 25.737654,-4.60457 6.58264,-0.19116 13.29596,0.1246 16.75684,0.78815 l 0.88204,0.16911 -0.84521,-0.36856 c -3.65705,-1.59468 -18.58678,-2.13025 -25.965902,-0.93148 -10.211514,1.65892 -18.50909,4.53433 -22.063082,7.64566 -1.140235,0.99821 -1.082767,0.98301 0.876408,-0.23181 1.153162,-0.71503 3.232726,-1.82496 4.621252,-2.4665 z"
       id="path826"
       inkscape:connector-curvature="0" />
  </g>
</svg>
