<?xml version="1.0" encoding="UTF-8" standalone="no"?>
<!-- Created with Inkscape (http://www.inkscape.org/) -->

<svg
   xmlns:dc="http://purl.org/dc/elements/1.1/"
   xmlns:cc="http://creativecommons.org/ns#"
   xmlns:rdf="http://www.w3.org/1999/02/22-rdf-syntax-ns#"
   xmlns:svg="http://www.w3.org/2000/svg"
   xmlns="http://www.w3.org/2000/svg"
   xmlns:sodipodi="http://sodipodi.sourceforge.net/DTD/sodipodi-0.dtd"
   xmlns:inkscape="http://www.inkscape.org/namespaces/inkscape"
   width="148mm"
   height="105mm"
   viewBox="0 0 148 105"
   version="1.1"
   id="svg8"
   inkscape:version="0.92.4 (5da689c313, 2019-01-14)"
   sodipodi:docname="firma.svg">
  <defs
     id="defs2" />
  <sodipodi:namedview
     id="base"
     pagecolor="#ffffff"
     bordercolor="#666666"
     borderopacity="1.0"
     inkscape:pageopacity="0.0"
     inkscape:pageshadow="2"
     inkscape:zoom="0.35"
     inkscape:cx="-210"
     inkscape:cy="560"
     inkscape:document-units="mm"
     inkscape:current-layer="layer1"
     showgrid="false"
     inkscape:window-width="1920"
     inkscape:window-height="1001"
     inkscape:window-x="-9"
     inkscape:window-y="-9"
     inkscape:window-maximized="1" />
  <metadata
     id="metadata5">
    <rdf:RDF>
      <cc:Work
         rdf:about="">
        <dc:format>image/svg+xml</dc:format>
        <dc:type
           rdf:resource="http://purl.org/dc/dcmitype/StillImage" />
        <dc:title></dc:title>
      </cc:Work>
    </rdf:RDF>
  </metadata>
  <g
     inkscape:label="Livello 1"
     inkscape:groupmode="layer"
     id="layer1"
     transform="translate(0,-192)">
    <path
       style="fill:#000000;stroke-width:0.09495823"
       d="m 13.030331,255.33686 c -0.201103,-0.0808 -0.214275,-0.14325 -0.224189,-1.06226 -0.01658,-1.53725 0.02085,-2.30316 0.114235,-2.33745 0.04742,-0.0174 0.08621,-0.10832 0.08621,-0.20203 0,-0.0937 0.0641,-0.22357 0.142437,-0.28859 0.07834,-0.065 0.142438,-0.2198 0.142438,-0.34398 0,-0.12417 0.0473,-0.22576 0.105118,-0.22576 0.05781,0 0.08307,-0.0575 0.05611,-0.1277 -0.02695,-0.0702 0.03257,-0.1865 0.132278,-0.25836 0.09971,-0.0719 0.181281,-0.18009 0.181281,-0.24051 0,-0.0604 0.0641,-0.16304 0.142437,-0.22806 0.07834,-0.065 0.142438,-0.19844 0.142438,-0.2965 0,-0.0981 0.04273,-0.17829 0.09496,-0.17829 0.05223,0 0.09496,-0.0485 0.09496,-0.10781 0,-0.0593 0.106828,-0.20681 0.237396,-0.32782 0.130567,-0.121 0.237395,-0.2599 0.237395,-0.30865 0,-0.0488 0.06383,-0.21103 0.141853,-0.36062 0.171325,-0.32851 0.202227,-0.64559 0.04039,-0.41443 -0.076,0.10855 -0.08393,0.086 -0.03335,-0.095 0.03651,-0.13057 0.107964,-0.34422 0.158791,-0.47479 0.05083,-0.13057 0.109019,-0.55781 0.129318,-0.94944 0.0203,-0.39162 0.07983,-0.72635 0.132303,-0.74384 0.05247,-0.0175 0.0954,-0.14826 0.0954,-0.29061 0,-0.14234 0.06274,-0.34176 0.139418,-0.44314 0.07668,-0.10138 0.140775,-0.36247 0.142437,-0.5802 0.0028,-0.36614 0.240679,-0.98641 0.406592,-1.06015 0.03917,-0.0174 0.07122,-0.11559 0.07122,-0.21819 0,-0.10259 0.106828,-0.28554 0.237395,-0.40655 0.130568,-0.121 0.237396,-0.30549 0.237396,-0.40997 0,-0.10448 0.08856,-0.30255 0.196808,-0.44016 0.108245,-0.13761 0.16727,-0.2502 0.131167,-0.2502 -0.05678,0 0.374559,-0.62753 0.52217,-0.75967 0.136655,-0.12233 0.574228,-0.75651 0.574228,-0.83224 0,-0.0469 0.106828,-0.14242 0.237396,-0.2123 0.148991,-0.0797 0.237395,-0.20948 0.237395,-0.3484 0,-0.13345 0.05656,-0.22135 0.142438,-0.22135 0.07834,0 0.142437,-0.0399 0.142437,-0.0886 0,-0.0487 0.09614,-0.11899 0.213656,-0.15618 0.117511,-0.0372 0.414148,-0.27767 0.659193,-0.5344 0.4155,-0.43531 0.473117,-0.46479 0.854625,-0.43731 0.317214,0.0229 0.430138,0.0775 0.502822,0.24313 0.05156,0.11751 0.126335,0.21365 0.166177,0.21365 0.12067,0 0.08104,0.80753 -0.04626,0.94247 -0.09224,0.0978 -0.09301,0.13526 -0.0034,0.1682 0.129496,0.0476 0.03089,0.26602 -0.299834,0.66417 -0.101509,0.1222 -0.194363,0.28897 -0.206342,0.37059 -0.04481,0.30531 -0.130871,0.41845 -0.318304,0.41845 -0.119781,0 -0.193519,0.063 -0.194537,0.16617 -9.5e-4,0.0914 -0.107731,0.26681 -0.237396,0.3898 -0.129664,0.123 -0.235755,0.26187 -0.235755,0.30862 0,0.0467 -0.106828,0.085 -0.237395,0.085 -0.144416,0 -0.237396,0.0541 -0.237396,0.13812 0,0.076 -0.106828,0.24495 -0.237395,0.37552 -0.130568,0.13056 -0.237396,0.28207 -0.237396,0.33667 0,0.0546 -0.08851,0.0993 -0.196699,0.0993 -0.213704,0 -0.49531,0.22592 -0.400181,0.32105 0.03233,0.0323 -0.0022,0.0588 -0.07678,0.0588 -0.07456,0 -0.241456,0.1282 -0.370877,0.28488 -0.129422,0.15668 -0.313612,0.28487 -0.409313,0.28487 -0.0957,0 -0.238099,0.0641 -0.31644,0.14244 -0.07834,0.0783 -0.117151,0.14244 -0.08625,0.14244 0.03091,0 -0.03014,0.16922 -0.135655,0.37605 -0.105515,0.20683 -0.191846,0.46069 -0.191846,0.56414 0,0.10346 -0.0365,0.21066 -0.08111,0.23822 -0.04461,0.0276 -0.08894,0.33502 -0.09852,0.68322 -0.0096,0.3482 -0.06005,0.71274 -0.112152,0.8101 -0.137816,0.25751 0.0617,0.2277 0.404055,-0.0604 0.158416,-0.1333 0.402385,-0.2374 0.556376,-0.2374 0.177063,0 0.310266,-0.0673 0.375888,-0.18991 0.0559,-0.10446 0.166756,-0.18992 0.246341,-0.18992 0.08336,0 0.116596,-0.0455 0.0784,-0.10728 -0.04,-0.0647 -0.01479,-0.0901 0.06357,-0.064 0.07143,0.0238 0.213692,-0.0348 0.316145,-0.13026 0.123446,-0.11501 0.207759,-0.13878 0.249968,-0.0705 0.0411,0.0665 0.08416,0.0497 0.121406,-0.0473 0.03174,-0.0827 0.165882,-0.1504 0.29809,-0.1504 0.132206,0 0.240375,-0.0427 0.240375,-0.095 0,-0.0522 0.128194,-0.0949 0.284875,-0.0949 0.156681,0 0.284875,-0.0427 0.284875,-0.095 0,-0.15662 0.177004,-0.10787 0.393131,0.10825 l 0.203217,0.20322 -0.226956,0.17149 c -0.125522,0.0949 -0.263347,0.13527 -0.308382,0.0904 -0.04508,-0.0449 -0.230012,0.072 -0.414321,0.26175 -0.431006,0.44382 -0.721844,0.58922 -1.178553,0.58922 -0.302683,0 -0.433268,0.0645 -0.712081,0.35158 -0.339122,0.3492 -0.717656,0.59531 -0.924271,0.60094 -0.176764,0.005 -0.6905,0.78307 -0.70795,1.07247 -0.0089,0.14755 0.02646,0.34793 0.07857,0.44529 0.06313,0.11795 0.06297,0.19666 -4.75e-4,0.23587 -0.05237,0.0324 -0.09521,0.28456 -0.09521,0.56042 0,0.27587 -0.06363,0.71134 -0.14141,0.96772 -0.07777,0.25638 -0.141871,0.6025 -0.142437,0.76915 -5.7e-4,0.16666 -0.03524,0.32416 -0.07706,0.35001 -0.04182,0.0258 -0.08594,0.23134 -0.09804,0.45665 -0.01997,0.37172 -0.156498,0.79442 -0.400272,1.23926 -0.0497,0.0907 -0.09036,0.25093 -0.09036,0.35609 0,0.10517 -0.06122,0.19121 -0.136038,0.19121 -0.07482,0 -0.163178,0.0855 -0.196348,0.19002 -0.03317,0.10451 -0.142877,0.2342 -0.243794,0.28821 -0.100918,0.054 -0.183486,0.17718 -0.183486,0.2737 0,0.27071 -0.646145,0.38346 -1.115759,0.19469 z m 0.770266,-0.9941 c 0.03006,-0.0783 0.150007,-0.14244 0.266547,-0.14244 0.157324,0 0.184296,-0.0276 0.104743,-0.10714 -0.06308,-0.0631 -0.07544,-0.17048 -0.03007,-0.26114 0.185823,-0.37126 0.27753,-0.65408 0.326817,-1.00786 0.02905,-0.2085 0.09655,-0.39367 0.150008,-0.41149 0.05758,-0.0192 0.0972,-0.41624 0.0972,-0.97407 0,-0.56447 0.03804,-0.94167 0.09496,-0.94167 0.05223,0 0.09496,-0.12819 0.09496,-0.28487 0,-0.15668 -0.02868,-0.28488 -0.06374,-0.28488 -0.122055,0 -0.411049,0.31523 -0.411049,0.44837 0,0.0737 -0.106828,0.27411 -0.237396,0.4453 -0.130568,0.17118 -0.237396,0.37852 -0.237396,0.46076 0,0.14727 -0.27735,0.73682 -0.390256,0.82954 -0.03185,0.0262 -0.06635,0.38678 -0.07668,0.80138 -0.01033,0.41461 -0.04072,0.78934 -0.06755,0.83274 -0.0645,0.10437 0.147498,0.73991 0.246812,0.73991 0.04259,0 0.102031,-0.0641 0.132094,-0.14244 z m 4.025124,-11.78425 c 0.117511,-0.12082 0.213656,-0.26427 0.213656,-0.31878 0,-0.0545 0.05953,-0.0991 0.132278,-0.0991 0.07275,0 0.156874,-0.0641 0.186937,-0.14244 0.03006,-0.0783 0.112181,-0.14244 0.182488,-0.14244 0.07031,0 0.19915,-0.14956 0.286319,-0.33235 0.08717,-0.1828 0.223276,-0.33235 0.302461,-0.33235 0.07919,0 0.143974,-0.0486 0.143974,-0.10803 0,-0.0594 0.149559,-0.23578 0.332354,-0.39192 0.182795,-0.15614 0.332354,-0.35646 0.332354,-0.44517 0,-0.0887 0.106828,-0.26164 0.237395,-0.3843 0.274532,-0.25791 0.340834,-0.85462 0.09496,-0.85462 -0.07834,0 -0.142438,0.0427 -0.142438,0.095 0,0.0522 -0.106828,0.095 -0.237395,0.095 -0.134318,0 -0.237396,0.0549 -0.237396,0.12639 0,0.0695 -0.106828,0.18357 -0.237395,0.25345 -0.148992,0.0797 -0.237396,0.20947 -0.237396,0.3484 0,0.16134 -0.0539,0.22134 -0.198806,0.22134 -0.118947,0 -0.218757,0.0763 -0.248471,0.18992 -0.02732,0.10446 -0.09453,0.18992 -0.149374,0.18992 -0.05484,0 -0.07381,0.0259 -0.04216,0.0576 0.07032,0.0703 -0.357904,0.5122 -0.496373,0.5122 -0.0546,0 -0.09927,0.0802 -0.09927,0.17832 0,0.25359 -0.269537,0.86622 -0.381107,0.86622 -0.05153,0 -0.09368,0.0855 -0.09368,0.18991 0,0.10446 -0.04273,0.18992 -0.09496,0.18992 -0.05223,0 -0.09496,0.0841 -0.09496,0.18694 0,0.23302 0.237584,0.16823 0.54601,-0.14889 z m 99.088909,8.82514 c -0.0653,-0.0264 -0.1187,-0.10844 -0.1187,-0.18242 0,-0.074 -0.0504,-0.13453 -0.11195,-0.13453 -0.0616,0 -0.24894,-0.14956 -0.41638,-0.33235 -0.16743,-0.1828 -0.28295,-0.33236 -0.2567,-0.33236 0.0262,0 -0.12321,-0.17092 -0.33212,-0.37983 -0.20891,-0.20891 -0.42901,-0.37983 -0.48913,-0.37983 -0.13745,0 -0.70955,-0.56619 -0.79372,-0.78552 -0.0353,-0.092 -0.16244,-0.16406 -0.28946,-0.16406 -0.12458,0 -0.34177,-0.10683 -0.48266,-0.2374 -0.14088,-0.13057 -0.29669,-0.2374 -0.34622,-0.2374 -0.0495,0 -0.0901,-0.0427 -0.0901,-0.0949 0,-0.0522 -0.0589,-0.095 -0.13081,-0.095 -0.0719,0 -0.184,-0.0641 -0.24902,-0.14244 -0.065,-0.0783 -0.26254,-0.14244 -0.43894,-0.14244 -0.1764,0 -0.32073,-0.0427 -0.32073,-0.095 0,-0.0522 -0.1047,-0.095 -0.23267,-0.095 -0.12798,0 -0.27675,-0.0748 -0.33062,-0.16618 -0.0854,-0.14493 -0.11011,-0.14797 -0.19318,-0.0237 -0.0639,0.0956 -0.0957,0.10339 -0.0967,0.0237 -9.5e-4,-0.0653 -0.0997,-0.1187 -0.21986,-0.1187 -0.12012,0 -0.26852,-0.0501 -0.32978,-0.11137 -0.0824,-0.0824 -0.17078,-0.0843 -0.33969,-0.007 -0.16675,0.076 -0.25707,0.0753 -0.33493,-0.003 -0.0788,-0.0788 -0.13629,-0.0769 -0.22056,0.007 -0.0627,0.0627 -0.29312,0.11395 -0.51211,0.11395 -0.26632,0 -0.41626,0.0472 -0.45281,0.14243 -0.0655,0.1708 -0.5447,0.19012 -0.70634,0.0285 -0.25798,-0.25798 0.0484,-0.83563 0.4432,-0.83563 0.11138,0 0.20251,-0.0589 0.20251,-0.13081 0,-0.072 0.0661,-0.18566 0.14688,-0.2527 0.0808,-0.067 0.23324,-0.2432 0.33882,-0.39146 0.16635,-0.23364 0.17135,-0.26957 0.0374,-0.26957 -0.0928,0 -0.1274,0.0439 -0.0866,0.10991 0.0465,0.0753 0.003,0.0931 -0.13684,0.0564 -0.11262,-0.0294 -0.20477,-0.0148 -0.20477,0.0325 0,0.0473 -0.25638,0.0861 -0.56975,0.0861 -0.31336,0 -0.56975,0.0419 -0.56975,0.0931 0,0.0512 -0.10682,0.11996 -0.23739,0.15273 -0.13057,0.0328 -0.2374,0.0977 -0.2374,0.14425 0,0.0466 -0.1509,0.0847 -0.33533,0.0847 -0.21048,0 -0.35569,0.053 -0.39,0.14244 -0.0301,0.0783 -0.15691,0.14244 -0.28189,0.14244 -0.12497,0 -0.22723,0.0427 -0.22723,0.095 0,0.0555 -0.31959,0.095 -0.76883,0.095 h -0.76883 l 0.0329,-0.47485 0.0329,-0.47485 -0.59349,6e-5 c -0.35436,4e-5 -0.59348,0.0406 -0.59348,0.10062 0,0.0553 -0.0382,0.0769 -0.085,0.048 -0.0468,-0.0289 -0.10923,0.0106 -0.13885,0.0877 -0.0296,0.0772 -0.11522,0.11673 -0.19026,0.0879 -0.075,-0.0288 -0.16464,-0.007 -0.19912,0.0491 -0.0345,0.0558 -0.16699,0.10143 -0.29447,0.10143 -0.12749,0 -0.23179,0.0427 -0.23179,0.095 0,0.0522 -0.1282,0.095 -0.28488,0.095 -0.15668,0 -0.28487,-0.0377 -0.28487,-0.0839 0,-0.0461 -0.088,-0.10691 -0.19561,-0.13504 -0.16928,-0.0443 -0.18734,-0.10007 -0.13414,-0.41465 0.0338,-0.19992 0.0798,-0.43152 0.10228,-0.51467 0.0326,-0.12066 -0.0362,-0.14983 -0.34065,-0.14456 -0.2098,0.004 -0.38147,0.0396 -0.38147,0.08 0,0.0403 -0.14955,0.0733 -0.33235,0.0733 -0.18279,0 -0.332353,0.048 -0.332353,0.10659 0,0.0776 -0.0357,0.077 -0.13135,-0.002 -0.10129,-0.0841 -0.14407,-0.0759 -0.18693,0.0359 -0.0306,0.0797 -0.16377,0.14486 -0.29597,0.14486 -0.13221,0 -0.24037,0.0427 -0.24037,0.095 0,0.0525 -0.24935,0.095 -0.55813,0.095 -0.38026,0 -0.59579,0.0454 -0.67633,0.14244 -0.0673,0.0811 -0.27435,0.14244 -0.48081,0.14244 -0.19943,0 -0.38902,0.0427 -0.42129,0.095 -0.0323,0.0522 -0.24124,0.0949 -0.46435,0.0949 -0.33827,0 -0.42732,-0.0405 -0.53602,-0.24357 -0.10924,-0.20412 -0.1096,-0.25639 -0.002,-0.32277 0.0705,-0.0436 0.10189,-0.14761 0.0698,-0.23122 -0.0824,-0.21471 -0.59883,-0.19351 -0.89136,0.0366 -0.13189,0.10375 -0.27751,0.16532 -0.3236,0.13684 -0.0461,-0.0285 -0.0838,-0.007 -0.0838,0.0488 0,0.057 -0.20048,0.10056 -0.46316,0.10056 -0.29586,0 -0.50587,0.0514 -0.58138,0.14244 -0.065,0.0783 -0.16856,0.14243 -0.23009,0.14243 -0.18761,0 -0.62291,0.23139 -0.62524,0.33236 -0.001,0.0522 -0.0436,0.0309 -0.0943,-0.0475 -0.0787,-0.12173 -0.0923,-0.11828 -0.0935,0.0237 -10e-4,0.11356 -0.0766,0.16617 -0.23885,0.16617 -0.13057,0 -0.2374,0.0427 -0.2374,0.095 0,0.0522 -0.23502,0.095 -0.52227,0.095 h -0.52227 v -0.47479 -0.47479 h -0.55812 c -0.38027,0 -0.5958,0.0454 -0.67634,0.14244 -0.0659,0.0794 -0.27286,0.14243 -0.46742,0.14243 -0.192071,0 -0.390509,0.0413 -0.440977,0.0918 -0.05047,0.0505 -0.240621,0.10221 -0.422564,0.11497 -0.181943,0.0128 -0.374362,0.0802 -0.427598,0.14989 -0.05324,0.0697 -0.202795,0.1334 -0.332354,0.14161 -0.129559,0.008 -0.25732,0.0456 -0.283916,0.0831 -0.04325,0.0609 -0.826405,0.11178 -1.404496,0.0912 -0.205127,-0.007 -0.216665,-0.041 -0.189916,-0.55379 0.02523,-0.48369 0.05286,-0.54947 0.242134,-0.57635 0.16851,-0.0239 0.213656,-0.0919 0.213656,-0.32147 0,-0.18855 0.08364,-0.36863 0.237395,-0.51113 0.432385,-0.40072 0.248479,-0.57329 -0.232213,-0.2179 -0.149601,0.11061 -0.315843,0.17401 -0.369426,0.14089 -0.05358,-0.0331 -0.124265,-0.0168 -0.157069,0.0363 -0.03281,0.0531 -0.417881,0.0965 -0.855726,0.0965 h -0.79608 l -0.0292,0.40357 c -0.02254,0.3116 -0.07789,0.42493 -0.242856,0.49731 -0.132247,0.058 -0.213656,0.17674 -0.213656,0.31159 0,0.11982 -0.06519,0.24288 -0.14486,0.27345 -0.10226,0.0392 -0.116465,0.0898 -0.0483,0.17193 0.10946,0.13189 0.0361,0.24131 -0.161799,0.24131 -0.07337,0 -0.19749,0.0641 -0.275831,0.14244 -0.07834,0.0783 -0.246212,0.14244 -0.37305,0.14244 -0.126837,0 -0.230613,0.0427 -0.230613,0.095 0,0.0522 -0.05886,0.095 -0.13081,0.095 -0.07194,0 -0.184006,0.0641 -0.249023,0.14244 -0.08411,0.10134 -0.306621,0.14244 -0.771292,0.14244 -0.517211,0 -0.653081,-0.0296 -0.653081,-0.14244 0,-0.0783 -0.03985,-0.14244 -0.08856,-0.14244 -0.100929,0 -0.178324,-0.20692 -0.231282,-0.61835 -0.02009,-0.15606 -0.04859,-0.32648 -0.06333,-0.37871 -0.01475,-0.0522 0.0054,-0.18042 0.04486,-0.28487 0.03941,-0.10446 0.09528,-0.25402 0.124152,-0.33236 0.02887,-0.0783 0.04228,-0.24463 0.02981,-0.36953 -0.0171,-0.17128 0.01369,-0.21315 0.125278,-0.17033 0.08137,0.0312 0.173209,0.0159 0.204077,-0.034 0.03087,-0.0499 0.0083,-0.0908 -0.05004,-0.0908 -0.05839,0 -0.07933,-0.0434 -0.04652,-0.0965 0.0328,-0.0531 0.09942,-0.0719 0.148042,-0.0419 0.04862,0.03 0.0884,0.009 0.0884,-0.0459 0,-0.0553 0.07891,-0.10056 0.17535,-0.10056 0.09644,0 0.332132,-0.15227 0.523755,-0.33837 0.191623,-0.1861 0.432085,-0.34467 0.53436,-0.35237 0.102275,-0.008 0.207094,-0.0691 0.23293,-0.13643 0.03181,-0.0829 0.250411,-0.12241 0.677216,-0.12241 0.525892,0 0.674874,0.0375 0.899818,0.22683 0.148268,0.12476 0.243402,0.25301 0.211408,0.28501 -0.05056,0.0506 0.137036,0.0394 1.065762,-0.0635 0.104454,-0.0116 0.271167,-0.0943 0.370474,-0.18393 0.09931,-0.0896 0.216818,-0.14049 0.261135,-0.1131 0.04432,0.0274 0.08058,0.005 0.08058,-0.0508 0,-0.0585 0.216332,-0.10056 0.516666,-0.10056 0.284166,0 0.543075,-0.0427 0.575353,-0.095 0.102273,-0.16548 0.764325,-0.10975 0.934865,0.0787 0.175455,0.19387 0.207208,0.39609 0.0622,0.39609 -0.05223,0 -0.09496,0.14357 -0.09496,0.31905 0,0.22948 -0.06665,0.36911 -0.237396,0.49733 -0.155844,0.11704 -0.237396,0.27111 -0.237396,0.44851 v 0.27022 l 0.878364,-0.0255 c 0.4831,-0.014 0.901407,-0.0589 0.929573,-0.0998 0.02816,-0.0409 0.199087,-0.0847 0.379837,-0.0974 0.18074,-0.0127 0.37414,-0.0827 0.42978,-0.1557 0.0556,-0.073 0.23431,-0.13936 0.39703,-0.14754 0.16273,-0.008 0.3273,-0.0463 0.36572,-0.0847 0.0384,-0.0384 0.15887,-0.0712 0.26767,-0.0729 0.10881,-0.002 0.28078,-0.0658 0.38216,-0.14244 0.26233,-0.19842 0.80299,-0.18198 0.88001,0.0268 0.0337,0.0914 0.10716,0.20148 0.16319,0.24462 0.0708,0.0545 0.0657,0.0932 -0.0168,0.12661 -0.0653,0.0265 -0.11869,0.12473 -0.11869,0.2183 0,0.1185 0.0726,0.17013 0.23912,0.17013 0.13152,0 0.26224,-0.0374 0.29048,-0.0831 0.0282,-0.0457 0.12906,-0.0831 0.22404,-0.0831 0.095,0 0.22588,-0.0641 0.2909,-0.14244 0.065,-0.0783 0.21728,-0.14244 0.33837,-0.14244 0.12109,0 0.24658,-0.0427 0.27886,-0.095 0.0323,-0.0522 0.16604,-0.095 0.29726,-0.095 0.13121,0 0.30267,-0.0641 0.38101,-0.14243 0.0881,-0.0881 0.32105,-0.14244 0.61044,-0.14244 0.25741,0 0.46835,-0.032 0.46875,-0.0712 0.001,-0.123 0.45486,-0.28982 0.54445,-0.20024 0.0488,0.0488 0.17817,-0.0161 0.30826,-0.15459 0.16369,-0.17425 0.32225,-0.23866 0.58748,-0.23866 h 0.36328 v 0.42731 c 0,0.23503 -0.0427,0.42732 -0.095,0.42732 -0.0522,0 -0.095,0.061 -0.095,0.13565 0,0.0746 -0.0705,0.20615 -0.15665,0.2923 -0.14555,0.14556 -0.14387,0.15444 0.0237,0.12548 0.0992,-0.0171 0.23685,-0.0846 0.30587,-0.14986 0.069,-0.0653 0.22673,-0.1187 0.35049,-0.1187 0.12376,0 0.25142,-0.0427 0.28369,-0.095 0.0323,-0.0522 0.17582,-0.095 0.31897,-0.095 0.14316,0 0.31264,-0.0524 0.37664,-0.11636 0.064,-0.064 0.43669,-0.14256 0.8282,-0.17458 0.539153,-0.0441 0.747333,-0.10226 0.858173,-0.23973 0.10419,-0.12922 0.16058,-0.14732 0.19577,-0.0628 0.0557,0.13383 0.50839,0.16471 0.50839,0.0347 0,-0.0462 0.23728,-0.11367 0.52729,-0.1499 0.70631,-0.0882 0.82751,0.0165 0.78613,0.67941 -0.0173,0.27739 -0.0193,0.50429 -0.004,0.50421 0.0149,-7e-5 0.12171,-0.0619 0.23739,-0.13748 0.11567,-0.0755 0.41325,-0.15032 0.66129,-0.16618 0.24804,-0.0159 0.45102,-0.0609 0.45105,-0.10004 4e-5,-0.0392 0.13896,-0.0726 0.30869,-0.0742 0.16974,-0.002 0.39156,-0.0658 0.49294,-0.14244 0.24057,-0.18196 0.71556,-0.17789 0.98153,0.008 0.24721,0.17316 0.29266,0.68145 0.0686,0.76742 -0.0784,0.0301 -0.14244,0.0918 -0.14244,0.13711 0,0.0454 0.10961,0.0408 0.24358,-0.0102 0.13396,-0.0509 0.41171,-0.0926 0.61722,-0.0926 0.20551,0 0.37365,-0.0427 0.37365,-0.095 0,-0.0522 0.0671,-0.0949 0.14922,-0.0949 0.0821,0 0.21333,-0.0641 0.29167,-0.14244 0.0783,-0.0783 0.22634,-0.14244 0.3289,-0.14244 0.10257,0 0.28992,-0.0678 0.41636,-0.15062 0.12643,-0.0828 0.27733,-0.1213 0.33533,-0.0854 0.058,0.0358 0.15602,-0.002 0.21783,-0.0846 0.0786,-0.10465 0.29106,-0.15468 0.70587,-0.16616 0.32642,-0.009 0.59349,-0.0528 0.59349,-0.0972 0,-0.0444 0.17092,-0.0807 0.37983,-0.0807 0.31184,0 0.37983,0.0328 0.37983,0.18314 0,0.10072 -0.0641,0.24723 -0.14243,0.32557 -0.0783,0.0783 -0.14244,0.24569 -0.14244,0.3719 0,0.1262 -0.0898,0.31076 -0.19964,0.41013 -0.1098,0.0994 -0.25908,0.2956 -0.33172,0.43608 -0.11886,0.22985 -0.11551,0.25601 0.0335,0.26144 1.61167,0.0587 2.16913,0.12397 2.27837,0.2668 0.085,0.11115 0.11869,0.11916 0.11869,0.0282 0,-0.0781 0.0879,-0.0394 0.22845,0.10055 0.33483,0.33346 0.51075,0.46492 0.62217,0.46492 0.0544,0 0.099,0.0427 0.099,0.095 0,0.0522 0.14499,0.095 0.32219,0.095 0.19879,0 0.34313,0.0546 0.37685,0.14243 0.0301,0.0783 0.14147,0.14244 0.24756,0.14244 0.10609,0 0.19289,0.0405 0.19289,0.0901 0,0.0495 0.11376,0.20978 0.25281,0.35609 0.15738,0.16562 0.23019,0.2033 0.19289,0.0999 -0.0336,-0.0933 -0.0145,-0.16618 0.0437,-0.16618 0.0681,0 0.0628,-0.0491 -0.0153,-0.14323 -0.17157,-0.20674 -0.15455,-2.89366 0.019,-3.00375 0.0993,-0.063 0.0973,-0.079 -0.0104,-0.0801 -0.12871,-0.001 -0.0597,-0.14234 0.0712,-0.14535 0.18408,-0.004 0.30071,-0.18716 0.30071,-0.47165 0,-0.20222 0.0871,-0.42301 0.23739,-0.60159 0.13057,-0.15518 0.2374,-0.35261 0.2374,-0.43875 0,-0.12952 0.99462,-1.19286 1.11576,-1.19286 0.0205,0 0.10338,-0.0661 0.18414,-0.14684 0.1058,-0.10579 0.29637,-0.13898 0.68167,-0.1187 l 0.53482,0.0281 v 0.52227 0.52227 l -0.42731,0.0475 c -0.44665,0.0496 -0.85359,0.31921 -0.85608,0.56712 -0.001,0.12832 -0.0121,0.12862 -0.0935,0.003 -0.0738,-0.11426 -0.0923,-0.0984 -0.0935,0.0801 -9.5e-4,0.13008 -0.0705,0.24187 -0.16763,0.26904 -0.16849,0.0471 -0.68844,1.00569 -0.68844,1.26919 0,0.079 -0.0586,0.2279 -0.13017,0.33092 -0.16045,0.23088 -0.21734,1.94403 -0.0646,1.94403 0.12778,0 0.13116,0.6341 0.004,0.71282 -0.0607,0.0375 -0.0433,0.13449 0.0475,0.26413 0.0789,0.11264 0.14346,0.32129 0.14346,0.46366 0,0.26325 0.39528,0.79128 0.50798,0.67858 0.034,-0.034 0.0618,0.003 0.0618,0.0818 0,0.0789 0.0855,0.22089 0.18991,0.31542 0.10446,0.0945 0.18992,0.21906 0.18992,0.27675 0,0.0577 0.0855,0.15825 0.18992,0.22348 0.14412,0.09 0.18991,0.22144 0.18991,0.54511 0,0.43208 -0.0939,0.50775 -0.45105,0.36362 z m -34.835678,-4.9224 c 0.09909,-0.075 0.211913,-0.11676 0.250712,-0.0928 0.0388,0.024 0.142986,-0.10905 0.231522,-0.29562 0.08853,-0.18658 0.183775,-0.31643 0.211643,-0.28856 0.09624,0.0962 0.312935,-0.21234 0.312935,-0.44562 0,-0.12871 0.06681,-0.25965 0.148455,-0.29099 0.302454,-0.11606 0.03128,-0.21938 -0.454227,-0.17306 -0.488898,0.0466 -0.9197,0.25516 -0.925702,0.44808 -0.0016,0.0528 -0.109811,0.21114 -0.240379,0.35195 -0.224419,0.24202 -0.320414,0.71938 -0.17409,0.86571 0.106944,0.10694 0.44932,0.0646 0.639131,-0.0791 z m -18.17475,3.08052 c 0,-0.0553 -0.03825,-0.0769 -0.08501,-0.048 -0.101635,0.0628 -0.199866,-0.16384 -0.199866,-0.46116 0,-0.13653 -0.08621,-0.25367 -0.237396,-0.32256 -0.197859,-0.0901 -0.237395,-0.17397 -0.237395,-0.5033 0,-0.24 -0.05566,-0.43653 -0.141756,-0.50057 -0.212258,-0.15786 -0.220979,-1.71368 -0.01091,-1.94581 0.08396,-0.0928 0.152663,-0.28862 0.152663,-0.4352 0,-0.1623 0.09282,-0.35253 0.237395,-0.48652 0.130568,-0.12101 0.237979,-0.29683 0.238692,-0.39072 7.6e-4,-0.0939 0.02801,-0.27047 0.06065,-0.39239 0.04433,-0.16558 0.07969,-0.18961 0.139686,-0.095 0.06155,0.0971 0.08067,0.0879 0.08179,-0.0395 7.59e-4,-0.0914 0.04418,-0.16617 0.09641,-0.16617 0.05223,0 0.09496,-0.0672 0.09496,-0.14922 0,-0.0821 0.05341,-0.20458 0.118698,-0.27225 0.300739,-0.31169 0.54601,-0.63244 0.54601,-0.71404 0,-0.0492 0.07478,-0.13307 0.166176,-0.1863 0.09376,-0.0546 0.114102,-0.0981 0.04667,-0.0997 -0.177767,-0.004 0.06905,-0.36898 0.299153,-0.44201 0.206011,-0.0654 0.722453,-0.56705 0.722453,-0.70178 0,-0.12617 1.353281,-1.42226 1.485432,-1.42265 0.0597,-1.9e-4 0.130552,-0.0577 0.157457,-0.1278 0.0269,-0.0701 0.202402,-0.20031 0.389992,-0.28933 0.187591,-0.089 0.341074,-0.20257 0.341074,-0.25235 0,-0.0498 0.149559,-0.0905 0.332354,-0.0905 0.323611,0 0.332354,-0.01 0.332354,-0.37423 0,-0.20583 -0.04273,-0.40064 -0.09496,-0.43292 -0.05223,-0.0323 -0.09496,-0.30401 -0.09496,-0.60384 0,-0.29983 -0.05128,-0.59643 -0.113949,-0.6591 -0.08863,-0.0886 -0.08335,-0.1146 0.02374,-0.11684 0.102673,-0.002 0.09543,-0.0275 -0.02849,-0.0997 -0.0914,-0.0532 -0.166511,-0.14808 -0.166918,-0.21077 -3.8e-4,-0.0627 -0.115755,-0.16739 -0.256327,-0.23267 -0.304794,-0.14155 -1.321273,-0.15873 -1.404701,-0.0237 -0.03228,0.0522 -0.205725,0.095 -0.385438,0.095 -0.179712,0 -0.326749,0.0427 -0.326749,0.095 0,0.0522 -0.06544,0.095 -0.145417,0.095 -0.07998,0 -0.170014,0.0641 -0.200076,0.14244 -0.03006,0.0783 -0.128329,0.14244 -0.21837,0.14244 -0.09004,0 -0.220883,0.10682 -0.290761,0.23739 -0.06988,0.13057 -0.204967,0.2374 -0.300198,0.2374 -0.222305,0 -0.648946,0.36915 -0.650838,0.56313 -0.0011,0.11194 -0.0205,0.11905 -0.07794,0.0285 -0.05558,-0.0876 -0.111485,-0.0551 -0.204508,0.1187 -0.07041,0.13157 -0.196765,0.23921 -0.280787,0.23921 -0.155014,0 -0.479849,0.31406 -0.479849,0.46393 0,0.0451 -0.19229,0.26827 -0.427312,0.49604 -0.235021,0.22777 -0.427312,0.46553 -0.427312,0.52836 0,0.0628 -0.128193,0.25459 -0.284875,0.42614 -0.156681,0.17154 -0.284874,0.35672 -0.284874,0.4115 0,0.16938 -0.815228,0.99757 -0.981959,0.99757 -0.111739,0 -0.15754,-0.0828 -0.15754,-0.28488 0,-0.15668 0.0396,-0.28487 0.088,-0.28487 0.09667,0 0.386788,-0.53272 0.386788,-0.71022 0,-0.0612 0.106828,-0.21166 0.237396,-0.33432 0.130567,-0.12266 0.237395,-0.30598 0.237395,-0.40737 0,-0.10138 0.213656,-0.38811 0.474791,-0.63717 0.27744,-0.26461 0.474792,-0.53634 0.474792,-0.65373 0,-0.15098 0.05898,-0.2009 0.237395,-0.2009 0.17409,0 0.237396,-0.0506 0.237396,-0.18991 0,-0.10446 0.04379,-0.18992 0.09731,-0.18992 0.05352,0 0.138277,-0.10775 0.18835,-0.23946 0.05916,-0.15561 0.188392,-0.25892 0.369071,-0.29506 0.162107,-0.0324 0.297575,-0.13034 0.324905,-0.23485 0.02578,-0.0986 0.125712,-0.20856 0.222068,-0.24438 0.09636,-0.0358 0.262015,-0.16423 0.368132,-0.28535 0.106117,-0.12113 0.261873,-0.22023 0.346126,-0.22023 0.08425,0 0.253817,-0.10609 0.37681,-0.23576 0.122993,-0.12966 0.298402,-0.23649 0.3898,-0.23739 0.0914,-9e-4 0.166177,-0.0397 0.166177,-0.0863 0,-0.0466 0.106828,-0.11147 0.237395,-0.14424 0.130568,-0.0328 0.237396,-0.1015 0.237396,-0.15273 0,-0.0512 0.168402,-0.0932 0.374228,-0.0932 0.205826,0 0.403458,-0.0473 0.439182,-0.1051 0.04528,-0.0733 0.08968,-0.0661 0.146588,0.0237 0.06007,0.0948 0.08202,0.0975 0.08309,0.0101 8.55e-4,-0.0725 0.133127,-0.1187 0.339412,-0.1187 0.201125,0 0.314196,-0.0385 0.279271,-0.095 -0.03228,-0.0522 0.0079,-0.095 0.08935,-0.095 0.08142,0 0.148042,0.0427 0.148042,0.095 0,0.0522 0.0641,0.095 0.142438,0.095 0.07834,0 0.142437,0.0427 0.142437,0.095 0,0.0522 0.063,0.095 0.139999,0.095 0.077,0 0.20629,0.12819 0.287313,0.28487 0.08102,0.15668 0.210313,0.28488 0.287313,0.28488 0.09913,0 0.144221,0.11781 0.154462,0.40357 0.01667,0.465 0.02847,0.54129 0.113865,0.73592 0.03437,0.0784 0.07427,0.32178 0.08866,0.54098 0.01439,0.21919 0.05655,0.42892 0.09368,0.46605 0.03714,0.0371 0.01993,0.12487 -0.03824,0.19496 -0.07779,0.0937 -0.07757,0.12743 8.24e-4,0.12743 0.05862,0 0.106585,0.0855 0.106585,0.18992 0,0.10445 -0.04525,0.18991 -0.100563,0.18991 -0.05531,0 -0.07415,0.0427 -0.04187,0.095 0.03228,0.0522 0.101418,0.095 0.153645,0.095 0.05223,0 0.06855,-0.0427 0.03627,-0.095 -0.03228,-0.0522 -0.01344,-0.095 0.04188,-0.095 0.05531,0 0.100562,0.0427 0.100562,0.095 0,0.1348 0.50869,0.11804 0.648086,-0.0214 0.09179,-0.0918 0.155603,-0.0918 0.302578,0 0.102442,0.064 0.269778,0.11632 0.371859,0.11632 0.102081,0 0.21201,0.0427 0.244288,0.095 0.03228,0.0522 0.223461,0.095 0.42485,0.095 0.401308,0 0.639513,0.15884 1.306976,0.87155 0.06464,0.069 0.20225,0.20642 0.30579,0.30532 0.103538,0.0989 0.165636,0.21641 0.137994,0.26114 -0.02764,0.0447 -0.01,0.0813 0.03923,0.0813 0.04922,0 0.111836,0.0855 0.139152,0.18991 0.07322,0.28 0.408718,0.23438 0.647049,-0.088 0.245593,-0.33218 0.959907,-0.8616 1.162507,-0.8616 0.07934,0 0.171576,-0.0861 0.204969,-0.19129 0.03339,-0.10522 0.100369,-0.16679 0.148837,-0.13684 0.04847,0.03 0.08812,0.0141 0.08812,-0.0353 0,-0.0494 0.145335,-0.15871 0.322966,-0.243 0.445975,-0.21163 2.257474,-0.21969 2.430823,-0.0108 0.06502,0.0783 0.175072,0.14244 0.244568,0.14244 0.06949,0 0.195756,0.14625 0.280581,0.32501 0.08482,0.17875 0.215024,0.34834 0.28933,0.37685 0.07572,0.0291 0.135103,0.17837 0.135103,0.3397 0,0.15832 0.04273,0.28786 0.09496,0.28786 0.05265,0 0.09496,0.25135 0.09496,0.56414 0,0.31028 -0.04273,0.59056 -0.09496,0.62283 -0.05223,0.0323 -0.09496,0.14297 -0.09496,0.24598 0,0.10301 -0.0641,0.21189 -0.142437,0.24195 -0.07834,0.0301 -0.142438,0.13555 -0.142438,0.23442 0,0.0989 -0.04525,0.17976 -0.100562,0.17976 -0.05531,0 -0.07715,0.0379 -0.04852,0.0842 0.02862,0.0463 -0.01353,0.13861 -0.09368,0.20513 -0.08014,0.0665 -0.123744,0.17818 -0.09689,0.24815 0.02685,0.07 -0.0093,0.12722 -0.08034,0.12722 -0.07104,0 -0.156354,0.10834 -0.189588,0.24076 -0.03379,0.13462 -0.163905,0.2801 -0.295169,0.33 -0.174809,0.0665 -0.234743,0.15919 -0.234743,0.36318 0,0.18133 -0.08024,0.33418 -0.237396,0.4522 -0.130567,0.0981 -0.237395,0.26973 -0.237395,0.3815 0,0.11178 -0.0641,0.25643 -0.142438,0.32145 -0.07834,0.065 -0.142437,0.2198 -0.142437,0.34398 0,0.12417 -0.03544,0.22577 -0.07876,0.22577 -0.110175,0 -0.08424,0.41221 0.03128,0.49707 0.14083,0.10347 0.691939,0.0873 0.759666,-0.0223 0.03228,-0.0522 0.123113,-0.095 0.201856,-0.095 0.07874,0 0.284283,-0.10764 0.456757,-0.23919 0.364729,-0.27819 0.607574,-0.23509 0.570649,0.10128 -0.01401,0.12763 0.01417,0.25655 0.06263,0.2865 0.04845,0.03 0.0607,0.0988 0.0272,0.15298 -0.03926,0.0635 -0.0899,0.0528 -0.142533,-0.0303 -0.06007,-0.0948 -0.08202,-0.0975 -0.08309,-0.0101 -7.6e-4,0.0653 -0.06689,0.1187 -0.146871,0.1187 -0.07998,0 -0.170014,0.0641 -0.200076,0.14244 -0.03006,0.0783 -0.114183,0.14244 -0.186937,0.14244 -0.07275,0 -0.132277,0.0427 -0.132277,0.095 0,0.0522 -0.144988,0.095 -0.322195,0.095 -0.198797,0 -0.343127,0.0546 -0.376853,0.14244 -0.07118,0.18549 -0.270123,0.17798 -0.955883,-0.0361 -0.59733,-0.18644 -0.716128,-0.33004 -0.664581,-0.8033 0.01615,-0.14829 -0.0092,-0.37112 -0.05639,-0.49517 -0.05297,-0.13934 -0.05084,-0.24713 0.0056,-0.282 0.05023,-0.031 0.09198,-4.8e-4 0.09278,0.0678 0.0012,0.0987 0.01828,0.0977 0.08332,-0.005 0.04503,-0.0711 0.06202,-0.20511 0.03775,-0.29789 -0.02426,-0.0928 0.0023,-0.1974 0.05912,-0.23249 0.05678,-0.0351 0.103231,-0.16674 0.103231,-0.29256 0,-0.1519 0.08773,-0.27635 0.261135,-0.37043 0.143624,-0.0779 0.210996,-0.14337 0.149715,-0.14546 -0.165384,-0.006 0.0912,-0.4688 0.440576,-0.79526 0.158439,-0.14805 0.288073,-0.331 0.288073,-0.40655 0,-0.0756 0.0641,-0.16197 0.142437,-0.19203 0.07834,-0.0301 0.142437,-0.11418 0.142437,-0.18694 0,-0.0727 0.04273,-0.13227 0.09496,-0.13227 0.05223,0 0.09496,-0.0654 0.09496,-0.14542 0,-0.08 0.06768,-0.17139 0.150399,-0.20313 0.121093,-0.0465 0.125718,-0.0734 0.02374,-0.13801 -0.09484,-0.0601 -0.09684,-0.0806 -0.008,-0.0817 0.06528,-7.6e-4 0.118698,-0.0624 0.118698,-0.137 0,-0.0745 0.106828,-0.21958 0.237396,-0.32228 0.20745,-0.16318 0.237395,-0.26073 0.237395,-0.77334 -4e-6,-0.53364 -0.12463,-0.85792 -0.32972,-0.85792 -0.03212,0 -0.173615,-0.10682 -0.314427,-0.23739 -0.343019,-0.31807 -1.20178,-0.3421 -1.52322,-0.0426 -0.114978,0.10712 -0.248277,0.17052 -0.296219,0.14089 -0.04794,-0.0296 -0.114008,-0.0104 -0.146813,0.0426 -0.0328,0.0531 -0.141111,0.0965 -0.240683,0.0965 -0.191172,0 -0.757335,0.49453 -0.757335,0.66151 0,0.054 -0.03394,0.0982 -0.07542,0.0982 -0.04148,0 -0.255136,0.16758 -0.474791,0.37241 -0.298773,0.2786 -0.399371,0.44462 -0.399371,0.6591 0,0.15768 0.04273,0.31311 0.09496,0.34538 0.05223,0.0323 0.09496,0.13807 0.09496,0.23509 0,0.097 0.05341,0.19438 0.118698,0.21635 0.09109,0.0307 0.09291,0.0712 0.0079,0.17436 -0.08541,0.10356 -0.07996,0.17665 0.02374,0.31847 0.193265,0.2643 0.187044,1.55796 -0.0079,1.63275 -0.0872,0.0335 -0.142437,0.17743 -0.142437,0.37125 0,0.17412 -0.04273,0.34299 -0.09496,0.37527 -0.05223,0.0323 -0.09496,0.20268 -0.09496,0.37866 0,0.17598 -0.0641,0.38406 -0.142438,0.4624 -0.07834,0.0783 -0.142437,0.18822 -0.142437,0.24418 0,0.056 -0.04273,0.10174 -0.09496,0.10174 -0.05223,0 -0.09496,0.0422 -0.09496,0.0937 0,0.0515 -0.11751,0.26357 -0.261135,0.47119 -0.25496,0.36857 -0.274701,0.37758 -0.83484,0.3811 -0.527443,0.003 -0.602102,-0.0232 -0.925843,-0.32854 -0.193676,-0.18268 -0.352137,-0.39634 -0.352137,-0.47479 0,-0.0785 -0.04273,-0.14265 -0.09496,-0.14265 -0.05223,0 -0.09496,-0.23502 -0.09496,-0.52227 0,-0.28725 0.04273,-0.52227 0.09496,-0.52227 0.05223,0 0.09496,-0.16787 0.09496,-0.37305 0,-0.20518 0.0641,-0.43715 0.142437,-0.51549 0.07834,-0.0783 0.142437,-0.30979 0.142437,-0.51433 0,-0.24983 0.06161,-0.42765 0.187678,-0.54175 0.103222,-0.0934 0.166622,-0.20391 0.140888,-0.24555 -0.02573,-0.0416 -0.0034,-0.10254 0.04972,-0.13535 0.05308,-0.0328 0.09651,-0.17518 0.09651,-0.3164 0,-0.17518 0.06788,-0.28653 0.213656,-0.35049 0.11751,-0.0515 0.227199,-0.18903 0.243752,-0.3055 0.01655,-0.11647 0.140984,-0.29898 0.276515,-0.40559 0.220425,-0.17339 0.230321,-0.20614 0.09382,-0.31051 -0.08393,-0.0642 -0.16563,-0.17975 -0.181557,-0.25685 -0.04146,-0.20068 -0.203862,-0.35613 -0.414416,-0.39668 -0.100161,-0.0193 -0.197486,-0.11491 -0.216277,-0.21249 -0.04249,-0.22064 -0.545433,-0.72251 -0.724062,-0.72251 -0.07275,0 -0.220835,-0.11259 -0.32908,-0.2502 -0.108245,-0.13761 -0.196808,-0.21816 -0.196808,-0.17899 0,0.0392 -0.09615,0.008 -0.213656,-0.0686 -0.197737,-0.12936 -1.255039,-0.20778 -1.422429,-0.10551 -0.0381,0.0233 -0.01674,0.13138 0.04748,0.24024 0.09271,0.15717 0.09232,0.20677 -0.0019,0.24091 -0.06528,0.0236 -0.118697,0.14373 -0.118697,0.26686 0,0.12313 -0.03342,0.24453 -0.07427,0.26978 -0.04085,0.0252 -0.08447,0.28975 -0.09694,0.5878 -0.01247,0.29804 -0.08253,0.65381 -0.155681,0.79059 -0.1805,0.33749 -0.277132,0.61086 -0.252799,0.71515 0.02881,0.12346 -0.189515,0.62556 -0.272006,0.62556 -0.03794,0 -0.07282,0.1347 -0.0775,0.29934 -0.0047,0.16463 -0.04323,0.32487 -0.08567,0.35609 -0.04244,0.0312 -0.0885,0.22768 -0.102369,0.43659 -0.01708,0.25735 -0.0912,0.42983 -0.22986,0.5349 -0.112558,0.0853 -0.219745,0.25397 -0.238193,0.37486 -0.01845,0.12089 -0.09662,0.28949 -0.173712,0.37468 -0.07709,0.0852 -0.140167,0.20493 -0.140167,0.2661 0,0.0612 -0.04273,0.11123 -0.09496,0.11123 -0.05223,0 -0.09496,0.0622 -0.09496,0.13822 0,0.14359 -0.35329,0.73596 -0.611323,1.02501 -0.08159,0.0914 -0.148342,0.24442 -0.148342,0.34005 0,0.0956 -0.107644,0.23148 -0.239208,0.30189 -0.174651,0.0935 -0.206685,0.14906 -0.118698,0.20597 0.08738,0.0565 0.06419,0.0934 -0.08437,0.1342 -0.112682,0.0309 -0.226136,0.13755 -0.25212,0.23691 -0.02598,0.0994 -0.125139,0.21055 -0.220344,0.24708 -0.09521,0.0365 -0.264404,0.16495 -0.375997,0.28536 -0.111593,0.12041 -0.294142,0.21893 -0.405664,0.21893 -0.111522,0 -0.202767,0.0419 -0.202767,0.0932 0,0.0512 -0.106828,0.11996 -0.237396,0.15273 -0.130567,0.0328 -0.237395,0.0977 -0.237395,0.14424 0,0.0466 -0.128194,0.0847 -0.284875,0.0847 -0.156681,0 -0.284874,-0.0453 -0.284874,-0.10056 z m 1.069977,-1.37472 c 0.194917,-0.13245 0.354396,-0.28099 0.354396,-0.33008 0,-0.0491 0.160242,-0.17386 0.356093,-0.27726 0.195852,-0.10339 0.302318,-0.18987 0.236592,-0.19218 -0.151828,-0.005 0.01757,-0.3309 0.333158,-0.64029 0.117511,-0.11521 0.213656,-0.2561 0.213656,-0.3131 0,-0.057 0.106813,-0.21883 0.237365,-0.35963 0.13055,-0.14079 0.302618,-0.3935 0.382374,-0.56157 0.07975,-0.16807 0.186597,-0.33128 0.237426,-0.3627 0.05083,-0.0314 0.09242,-0.14291 0.09242,-0.24776 0,-0.10486 0.1119,-0.33736 0.248666,-0.51667 0.136767,-0.17931 0.200501,-0.32602 0.141632,-0.32602 -0.07247,0 -0.07835,-0.0537 -0.0182,-0.16617 0.103443,-0.19352 0.215261,-0.49181 0.252294,-0.67304 0.01428,-0.0699 0.09328,-0.20142 0.175574,-0.29235 0.08513,-0.0941 0.149617,-0.33365 0.149617,-0.55582 0,-0.21477 0.04273,-0.4169 0.09496,-0.44918 0.05223,-0.0323 0.09496,-0.13857 0.09496,-0.23622 0,-0.0976 0.06715,-0.24467 0.14922,-0.32674 0.10578,-0.10579 0.114073,-0.14922 0.02849,-0.14922 -0.0939,0 -0.09541,-0.0253 -0.0068,-0.11395 0.133044,-0.13305 0.155998,-1.21547 0.02577,-1.21547 -0.0485,0 -0.152272,0.0641 -0.230613,0.14244 -0.07834,0.0783 -0.222515,0.14243 -0.320388,0.14243 -0.09787,0 -0.396142,0.21366 -0.66282,0.4748 -0.266678,0.26113 -0.521986,0.47479 -0.567352,0.47479 -0.119801,0 -0.599566,0.5679 -0.599566,0.70971 0,0.0662 -0.149267,0.22208 -0.331705,0.34633 -0.182437,0.12424 -0.331997,0.29855 -0.332354,0.38735 -3.8e-4,0.0888 -0.05895,0.19563 -0.130221,0.2374 -0.07127,0.0418 -0.200555,0.21481 -0.287313,0.38455 -0.08676,0.16974 -0.199374,0.30861 -0.25026,0.30861 -0.05089,0 -0.09252,0.054 -0.09252,0.1199 0,0.066 -0.106828,0.20013 -0.237396,0.29818 -0.130567,0.0981 -0.237395,0.25775 -0.237395,0.35489 0,0.0971 -0.04273,0.17662 -0.09496,0.17662 -0.05223,0 -0.09496,0.10682 -0.09496,0.23739 0,0.14771 -0.05381,0.2374 -0.142437,0.2374 -0.09948,0 -0.142437,0.10023 -0.142437,0.33235 0,0.18279 -0.04273,0.33235 -0.09496,0.33235 -0.05223,0 -0.09496,0.15237 -0.09496,0.3386 0,0.18623 -0.04285,0.41866 -0.09521,0.51651 -0.06365,0.11893 -0.06365,0.19742 0,0.23676 0.05237,0.0324 0.09521,0.24009 0.09521,0.46162 0,0.51278 0.17796,0.89166 0.451052,0.9603 0.117511,0.0295 0.213656,0.11699 0.213656,0.19433 0,0.19566 0.09194,0.17725 0.500227,-0.10019 z m 2.538435,-3.88986 c 0,-0.0783 0.04139,-0.14244 0.09198,-0.14244 0.05059,0 0.06738,0.0641 0.03732,0.14244 -0.03006,0.0783 -0.07145,0.14244 -0.09198,0.14244 -0.02052,0 -0.03732,-0.0641 -0.03732,-0.14244 z m 5.88741,2.42143 c 0.104454,-0.10445 0.189917,-0.25401 0.189917,-0.33235 0,-0.0783 0.04525,-0.14244 0.100562,-0.14244 0.05531,0 0.07726,-0.0377 0.04877,-0.0838 -0.02848,-0.0461 0.03309,-0.1917 0.136834,-0.32359 0.108982,-0.13855 0.188622,-0.38436 0.188622,-0.5822 0,-0.18832 0.05103,-0.42412 0.113406,-0.52399 0.0879,-0.14076 0.0879,-0.23757 0,-0.43049 -0.06237,-0.1369 -0.113406,-0.48191 -0.113406,-0.76671 0,-0.39696 -0.03324,-0.5178 -0.142437,-0.5178 -0.07987,0 -0.142438,0.0847 -0.142438,0.1929 0,0.10609 -0.0641,0.21749 -0.142437,0.24755 -0.07834,0.0301 -0.142437,0.13555 -0.142437,0.23442 0,0.0989 -0.04139,0.17976 -0.09198,0.17976 -0.05059,0 -0.06865,0.0608 -0.04014,0.13509 0.02851,0.0743 -0.03692,0.22386 -0.145417,0.33235 -0.108493,0.1085 -0.197259,0.28273 -0.197259,0.38718 0,0.10445 -0.04273,0.18992 -0.09496,0.18992 -0.05728,0 -0.09496,0.39566 -0.09496,0.99706 0,0.93375 0.01206,0.99706 0.189916,0.99706 0.104455,0 0.275379,-0.0855 0.379833,-0.18992 z m -53.114126,2.21487 c -0.03436,-0.0344 -0.06248,-0.11946 -0.06248,-0.18909 0,-0.14146 0.244789,-0.17334 0.325703,-0.0424 0.06462,0.10456 -0.177348,0.31738 -0.263222,0.2315 z m 9.053508,-0.12579 c 0,-0.0522 -0.19229,-0.0949 -0.427312,-0.0949 -0.316527,0 -0.427312,-0.0369 -0.427312,-0.14244 0,-0.0783 -0.04192,-0.14244 -0.09315,-0.14244 -0.05123,0 -0.119961,-0.10683 -0.152732,-0.23739 -0.03277,-0.13057 -0.09768,-0.2374 -0.144246,-0.2374 -0.04657,0 -0.08466,-0.25348 -0.08466,-0.56328 0,-0.52775 0.01947,-0.57696 0.308614,-0.77998 0.169738,-0.11918 0.322858,-0.25028 0.340267,-0.29134 0.01741,-0.0411 0.102872,-0.0753 0.189917,-0.0761 0.136883,-0.001 0.13902,-0.0139 0.01583,-0.0935 -0.07834,-0.0506 -0.09401,-0.0927 -0.03481,-0.0935 0.05919,-7.6e-4 0.129971,-0.0869 0.157287,-0.19137 0.02889,-0.11047 0.129524,-0.18992 0.240557,-0.18992 0.104991,0 0.205137,-0.0401 0.222546,-0.0891 0.01741,-0.049 0.138481,-0.10352 0.269048,-0.1211 0.130568,-0.0176 0.29081,-0.0655 0.356094,-0.1064 0.06708,-0.0421 0.118697,-0.0307 0.118697,0.0261 0,0.0553 0.05748,0.10057 0.12772,0.10057 0.242417,0 0.44203,0.33877 0.44203,0.75018 0,0.35812 0.01583,0.38705 0.142437,0.26044 0.07834,-0.0783 0.142438,-0.2279 0.142438,-0.33235 0,-0.10445 0.0641,-0.25401 0.142437,-0.33235 0.09812,-0.0981 0.142437,-0.3394 0.142437,-0.77553 0,-0.47566 0.04609,-0.69782 0.185324,-0.89336 0.255811,-0.35925 0.609788,-0.33307 0.653964,0.0484 0.01768,0.15264 0.07159,0.32524 0.1198,0.38355 0.07536,0.0911 1.179886,0.24888 1.604784,0.22918 0.07834,-0.004 0.538659,-0.0314 1.022928,-0.0617 0.726765,-0.0455 0.922676,-0.0275 1.122114,0.10319 0.181343,0.11882 0.273466,0.13189 0.369253,0.0524 0.08801,-0.073 0.146732,-0.075 0.189165,-0.006 0.03384,0.0548 0.163322,0.0996 0.287725,0.0996 0.124402,0 0.25367,0.0445 0.287262,0.0988 0.03359,0.0544 0.136907,0.0748 0.229592,0.0453 0.09284,-0.0295 0.222014,0.011 0.287643,0.0901 0.06552,0.0789 0.154091,0.12193 0.196826,0.0955 0.04274,-0.0264 0.13404,0.0278 0.202897,0.12055 0.06886,0.0927 0.2452,0.17452 0.391874,0.1818 0.146673,0.007 0.342329,0.0817 0.434789,0.16538 0.210652,0.19064 0.427298,0.19426 0.580468,0.01 0.06502,-0.0783 0.197955,-0.14244 0.295416,-0.14244 0.236787,0 0.559208,-0.28591 0.559208,-0.49589 0,-0.0928 0.04273,-0.16882 0.09496,-0.16882 0.05223,0 0.09496,-0.055 0.09496,-0.12226 0,-0.0774 -0.14351,-0.12798 -0.391029,-0.13785 -0.215066,-0.009 -0.464135,-0.0817 -0.553487,-0.16261 -0.08935,-0.0809 -0.193182,-0.14702 -0.230733,-0.14702 -0.03755,0 -0.167281,-0.10683 -0.288287,-0.2374 -0.121006,-0.13057 -0.311256,-0.2374 -0.422778,-0.2374 -0.134955,0 -0.202767,-0.0595 -0.202767,-0.17804 0,-0.0979 -0.02477,-0.3019 -0.05504,-0.45326 -0.04355,-0.21776 0.0057,-0.34414 0.235878,-0.60536 0.160007,-0.18158 0.291604,-0.36325 0.292439,-0.40372 8.55e-4,-0.0405 0.108344,-0.11418 0.238912,-0.16382 0.130568,-0.0496 0.237396,-0.13405 0.237396,-0.18757 0,-0.0535 0.0874,-0.0973 0.194232,-0.0973 0.194037,0 0.690423,-0.4131 0.602289,-0.50124 -0.02563,-0.0256 0.107838,-0.0646 0.296587,-0.0867 0.256154,-0.0299 0.398345,0.0111 0.560719,0.16155 0.119648,0.11088 0.373353,0.27554 0.563792,0.36591 0.292519,0.13881 0.346253,0.2117 0.346253,0.46967 0,0.21487 0.07035,0.35819 0.237395,0.48364 0.321191,0.2412 0.31815,0.68375 -0.0071,1.03453 l -0.244503,0.26369 0.648075,-0.0215 c 0.356442,-0.0118 0.678346,-0.0665 0.715342,-0.12143 0.04582,-0.0681 0.104858,-0.0624 0.185168,0.018 0.06485,0.0649 0.201827,0.1179 0.3044,0.1179 0.235266,0 0.91502,0.29575 0.91502,0.39811 0,0.12914 0.929235,0.0892 0.976741,-0.042 0.03422,-0.0945 0.08497,-0.0939 0.248766,0.003 0.171171,0.1012 0.240691,0.0972 0.413368,-0.0237 0.30939,-0.21671 1.941918,-0.20252 2.390611,0.0208 0.376772,0.18751 0.448669,0.50438 0.181437,0.79967 -0.116687,0.12894 -0.124651,0.17366 -0.03093,0.17366 0.08043,0 0.0482,0.0831 -0.08884,0.22892 -0.232625,0.24762 -0.236481,0.53901 -0.008,0.60132 0.126611,0.0345 0.126611,0.0276 0,-0.0619 -0.122913,-0.0869 -0.119658,-0.10094 0.02374,-0.10219 0.09384,-8.6e-4 0.16681,-0.0738 0.167631,-0.16763 0.0012,-0.14202 0.01484,-0.14547 0.0935,-0.0237 0.07867,0.12172 0.09226,0.11827 0.0935,-0.0237 7.6e-4,-0.0914 0.04894,-0.16618 0.10698,-0.16618 0.0696,0 0.08384,-0.1156 0.04183,-0.33955 -0.07963,-0.42447 0.06106,-0.61003 0.462511,-0.61003 0.165955,0 0.343027,-0.0413 0.393494,-0.0918 0.05047,-0.0505 0.229939,-0.10229 0.398825,-0.11516 0.168889,-0.0129 0.307068,-0.057 0.307068,-0.0982 0,-0.0411 0.106828,-0.0748 0.237396,-0.0748 0.130567,0 0.237395,0.0427 0.237395,0.095 0,0.0522 0.05088,0.0843 0.113059,0.0712 0.06218,-0.013 0.130169,0.055 0.151084,0.15118 0.04487,0.20639 -0.257083,0.4467 -0.737879,0.58727 -0.262217,0.0767 -0.339824,0.15269 -0.363455,0.35609 -0.01653,0.14224 -0.08596,0.25862 -0.154307,0.25862 -0.06834,0 -0.151475,0.13607 -0.184738,0.30238 -0.06195,0.30975 -0.302596,0.6472 -0.461533,0.6472 -0.04895,0 -0.19691,0.0849 -0.328797,0.18862 -0.131887,0.10375 -0.277504,0.16532 -0.323592,0.13684 -0.04609,-0.0285 -0.0838,-0.007 -0.0838,0.0488 0,0.0553 -0.07692,0.10056 -0.170925,0.10056 -0.09401,0 -0.221043,0.0501 -0.282299,0.11138 -0.165005,0.165 -0.591317,-0.0529 -0.591317,-0.30224 0,-0.10721 -0.0641,-0.21953 -0.142437,-0.24959 -0.191955,-0.0737 -0.194172,-0.97418 -0.003,-1.22691 0.157174,-0.2078 0.189894,-0.57296 0.05861,-0.6541 -0.04777,-0.0295 -0.111862,0 -0.142437,0.0656 -0.04439,0.0952 -0.06675,0.0954 -0.110981,5.7e-4 -0.03049,-0.0653 -0.222625,-0.1187 -0.427313,-0.1187 -0.233454,0 -0.372461,0.0442 -0.373373,0.1187 -0.0011,0.0889 -0.02163,0.0869 -0.08174,-0.008 -0.06465,-0.10198 -0.09154,-0.0974 -0.138003,0.0237 -0.03174,0.0827 -0.114633,0.1504 -0.1842,0.1504 -0.06957,0 -0.2415,0.0534 -0.382072,0.1187 -0.19737,0.0917 -0.255755,0.18635 -0.256327,0.41569 -3.8e-4,0.16334 -0.06686,0.35186 -0.147673,0.41893 -0.115383,0.0958 -0.120971,0.13799 -0.02603,0.19666 0.08601,0.0532 0.05306,0.0998 -0.114202,0.1617 -0.129311,0.0478 -0.223099,0.12481 -0.208419,0.17105 0.01468,0.0463 -0.08146,0.0976 -0.213656,0.11413 -0.132191,0.0165 -0.240347,0.0668 -0.240347,0.11177 0,0.11817 -0.561494,0.38048 -0.81443,0.38048 -0.21607,0 -0.646957,-0.37047 -0.87325,-0.75081 -0.08616,-0.14482 -0.09298,-0.25525 -0.02374,-0.38463 0.05342,-0.0998 0.09713,-0.33386 0.09713,-0.52008 0,-0.18623 0.03873,-0.3386 0.08607,-0.3386 0.04734,0 0.06372,-0.0855 0.0364,-0.18992 -0.04513,-0.17259 -0.129525,-0.18991 -0.924996,-0.18991 -0.852317,0 -0.881986,0.007 -1.128423,0.28405 -0.139201,0.15623 -0.253092,0.36988 -0.253092,0.47479 0,0.14015 -0.06296,0.19074 -0.237396,0.19074 -0.17409,0 -0.237396,0.0506 -0.237396,0.18992 0,0.10445 -0.04273,0.18991 -0.09496,0.18991 -0.05223,0 -0.08428,0.0534 -0.07122,0.1187 0.01306,0.0653 -0.02707,0.10888 -0.08917,0.0969 -0.0621,-0.012 -0.13976,0.0628 -0.172576,0.16617 -0.05418,0.17073 -0.146289,0.18799 -1.002848,0.18799 -0.768052,0 -0.975798,-0.0309 -1.118829,-0.16618 -0.353421,-0.33436 -0.589166,-0.49853 -0.715916,-0.49853 -0.07135,0 -0.18292,-0.0641 -0.247937,-0.14243 -0.07446,-0.0897 -0.283761,-0.14244 -0.56555,-0.14244 -0.246036,0 -0.475067,-0.0277 -0.508958,-0.0616 -0.129418,-0.12942 -1.513467,-0.14749 -1.746446,-0.0228 -0.1889,0.10109 -0.243822,0.10086 -0.306974,-0.001 -0.05654,-0.0915 -0.09487,-0.0954 -0.144715,-0.0147 -0.0426,0.0689 -0.108775,0.0773 -0.178047,0.0225 -0.06063,-0.048 -0.404704,-0.1097 -0.764602,-0.13719 -0.359897,-0.0275 -0.599955,-0.0164 -0.533463,0.0247 0.08747,0.0541 0.06492,0.0925 -0.08157,0.13898 -0.129675,0.0412 -0.202463,0.14313 -0.202463,0.28363 0,0.12065 -0.06612,0.27424 -0.146932,0.34131 -0.107651,0.0893 -0.11699,0.14045 -0.03493,0.19116 0.07448,0.046 0.04417,0.0908 -0.09046,0.13348 -0.12619,0.04 -0.202463,0.14332 -0.202463,0.27413 0,0.25074 -0.227104,0.59427 -0.601808,0.91034 -0.150555,0.12699 -0.322443,0.2771 -0.381974,0.33358 -0.232477,0.22055 -0.632965,0.43258 -0.817084,0.43258 -0.106292,0 -0.193257,0.0427 -0.193257,0.0949 0,0.0522 -0.04273,0.095 -0.09496,0.095 -0.05223,0 -0.09496,-0.0427 -0.09496,-0.095 z m 0.591106,-1.16323 c 0.431274,-0.2453 0.589573,-0.48236 0.288119,-0.43148 -0.09755,0.0165 -0.204091,-0.0597 -0.259913,-0.18575 -0.122512,-0.27671 -0.342213,-0.27122 -0.611353,0.0153 -0.264416,0.28145 -0.227721,0.5481 0.0875,0.63581 0.130293,0.0363 0.24816,0.0702 0.261925,0.0754 0.01377,0.005 0.118941,-0.044 0.233724,-0.10923 z m 0.71997,-0.78592 c -0.02924,-0.0292 -0.08233,0.0235 -0.117993,0.11711 -0.05153,0.13534 -0.04062,0.14624 0.05316,0.0532 0.0649,-0.0644 0.09407,-0.14104 0.06484,-0.17027 z m 10.427788,-3.19113 c 0.203457,-0.34714 0.273427,-0.84208 0.119045,-0.84208 -0.0457,0 -0.08374,-0.0748 -0.08454,-0.16618 -10e-4,-0.11746 -0.02338,-0.13166 -0.07623,-0.0484 -0.0501,0.0789 -0.113573,0.0104 -0.192368,-0.20746 -0.164446,-0.45477 -0.401971,-0.40459 -1.022576,0.21601 -0.281369,0.28137 -0.511579,0.53665 -0.511579,0.56728 0,0.0306 0.114823,0.17555 0.255162,0.32204 0.177813,0.18559 0.349388,0.26633 0.566005,0.26633 0.170965,0 0.365943,0.06 0.433286,0.13334 0.179433,0.19542 0.287918,0.14457 0.513797,-0.24084 z m 32.131838,4.85541 c 0,-0.0522 0.04273,-0.095 0.09496,-0.095 0.05223,0 0.09496,0.0427 0.09496,0.095 0,0.0522 -0.04273,0.095 -0.09496,0.095 -0.05223,0 -0.09496,-0.0427 -0.09496,-0.095 z m -53.398177,-0.0633 c -0.189516,-0.18951 -0.03312,-0.86302 0.296749,-1.27796 0.06746,-0.0849 0.111701,-0.19169 0.09831,-0.2374 -0.02866,-0.0978 0.482557,-0.9232 0.600371,-0.96938 0.04442,-0.0174 0.08077,-0.0922 0.08077,-0.16617 0,-0.074 0.04561,-0.13453 0.101358,-0.13453 0.05961,0 0.0766,-0.088 0.04126,-0.21365 -0.03861,-0.13726 -0.03,-0.17057 0.02406,-0.0932 0.08466,0.12121 0.206693,-0.0489 0.34644,-0.48296 0.03954,-0.12282 0.130957,-0.16387 0.317224,-0.14244 0.241802,0.0278 0.265565,0.0688 0.312892,0.54032 0.04242,0.42259 0.02204,0.52844 -0.118697,0.61633 -0.09345,0.0584 -0.169915,0.15993 -0.169915,0.22571 0,0.0658 -0.03976,0.11959 -0.08835,0.11959 -0.04859,0 -0.102009,0.0961 -0.118698,0.21366 -0.01669,0.11751 -0.126489,0.25584 -0.243999,0.30739 -0.117511,0.0515 -0.213656,0.16998 -0.213656,0.26317 0,0.0932 -0.106494,0.21796 -0.236653,0.27726 -0.186722,0.0851 -0.213755,0.13542 -0.128125,0.2386 0.120721,0.14546 -0.02226,0.50322 -0.32367,0.80986 -0.167059,0.16996 -0.459855,0.22356 -0.577662,0.10575 z m 3.545107,-0.12661 c 0,-0.0522 -0.100843,-0.095 -0.224095,-0.095 -0.128188,0 -0.300392,-0.10159 -0.402371,-0.23739 -0.09805,-0.13057 -0.232231,-0.2374 -0.298175,-0.2374 -0.06594,0 -0.119899,-0.0458 -0.119899,-0.10174 0,-0.0559 -0.05995,-0.16168 -0.133215,-0.23495 -0.114313,-0.11432 -0.140836,-0.11335 -0.186936,0.007 -0.02955,0.077 -0.153344,0.13999 -0.275107,0.13999 -0.121761,0 -0.27126,0.0499 -0.33222,0.11084 -0.08448,0.0845 -0.125042,0.0738 -0.170567,-0.0448 -0.07234,-0.18852 0.152075,-0.73072 0.302453,-0.73072 0.0592,0 0.160825,-0.0641 0.225842,-0.14244 0.06502,-0.0783 0.19602,-0.14244 0.291117,-0.14244 0.0951,0 0.232303,-0.0848 0.304902,-0.18845 0.115605,-0.16505 0.163348,-0.17389 0.384476,-0.0712 0.138864,0.0645 0.252814,0.17065 0.253221,0.23593 3.8e-4,0.0653 0.04347,0.1187 0.0957,0.1187 0.05223,0 0.09496,0.0802 0.09496,0.17829 0,0.50349 0.659464,0.54435 1.541782,0.0955 0.09069,-0.0461 0.279614,-0.0839 0.419835,-0.0839 0.140221,0 0.322408,-0.0603 0.404861,-0.13402 0.09937,-0.0888 0.496215,-0.15315 1.177104,-0.19077 l 1.027191,-0.0567 -0.03013,0.26198 c -0.02659,0.23123 -0.07472,0.26552 -0.409961,0.29207 -0.208909,0.0165 -0.420428,0.07 -0.470044,0.1187 -0.04961,0.0487 -0.167126,0.0886 -0.261135,0.0886 -0.09401,0 -0.171579,0.0534 -0.172378,0.1187 -0.0011,0.0869 -0.02341,0.084 -0.08346,-0.0108 -0.06117,-0.0966 -0.09181,-0.10005 -0.120568,-0.0138 -0.055,0.16502 -0.721597,0.3775 -1.189544,0.37918 -0.218883,7.6e-4 -0.422706,0.0415 -0.452939,0.0904 -0.08173,0.13224 -0.624274,0.38584 -0.825451,0.38584 -0.09643,0 -0.175328,0.0427 -0.175328,0.095 0,0.0522 -0.04273,0.095 -0.09496,0.095 -0.05223,0 -0.09496,-0.0427 -0.09496,-0.095 z M 9.1248737,248.00163 c -0.05859,-0.0586 -0.106529,-0.15852 -0.106529,-0.22207 0,-0.0635 -0.05341,-0.14045 -0.118698,-0.17092 -0.09496,-0.0443 -0.09496,-0.0665 0,-0.11078 0.06528,-0.0305 0.118698,-0.10937 0.118698,-0.17533 0,-0.18422 0.287667,-0.71887 0.386788,-0.71887 0.0484,0 0.088,-0.0806 0.088,-0.17906 0,-0.0985 0.06383,-0.30145 0.141852,-0.45105 0.151751,-0.29097 0.205343,-0.75469 0.06089,-0.52689 -0.09699,0.15295 -0.553762,0.39734 -0.742652,0.39734 -0.0761,0 -0.202463,0.0641 -0.280803,0.14244 -0.192668,0.19266 -0.500819,0.17996 -0.575978,-0.0237 -0.03372,-0.0914 -0.105922,-0.19591 -0.160446,-0.23224 -0.05452,-0.0363 -0.07901,-0.0792 -0.05441,-0.0953 0.0246,-0.0161 0.181875,-0.12522 0.349498,-0.24255 0.167623,-0.11734 0.351173,-0.21334 0.407889,-0.21334 0.05672,0 0.209947,-0.10683 0.340515,-0.23739 0.192983,-0.19299 0.330742,-0.2374 0.736358,-0.2374 0.5433453,0 0.7268633,-0.11159 0.7268633,-0.44199 0,-0.11775 0.106828,-0.32091 0.237396,-0.45148 0.130567,-0.13057 0.237395,-0.33673 0.237395,-0.45815 0,-0.12141 0.08317,-0.28069 0.184831,-0.35396 0.101656,-0.0733 0.163231,-0.16817 0.136833,-0.21088 -0.0264,-0.0427 -0.0027,-0.0777 0.05256,-0.0777 0.05531,0 0.100562,-0.0595 0.100562,-0.13228 0,-0.0727 0.0641,-0.15687 0.142438,-0.18694 0.07834,-0.0301 0.142436,-0.0996 0.142436,-0.15463 0,-0.11793 0.477684,-0.87189 0.61634,-0.97281 0.05709,-0.0416 0.0391,-0.0703 -0.04449,-0.0712 -0.0785,-8.6e-4 0.01564,-0.13002 0.213656,-0.29324 0.194694,-0.16049 0.35399,-0.36386 0.35399,-0.45195 0,-0.0881 0.08712,-0.21457 0.193601,-0.28107 0.10648,-0.0665 0.168056,-0.16224 0.136833,-0.21276 -0.03122,-0.0505 -0.0165,-0.0918 0.03272,-0.0918 0.04922,0 0.114597,-0.0748 0.145285,-0.16618 0.0801,-0.23856 0.266483,-0.513 0.512363,-0.75445 0.11751,-0.11539 0.213656,-0.25457 0.213656,-0.30929 0,-0.0547 0.04273,-0.0995 0.09496,-0.0995 0.05223,0 0.09496,-0.10682 0.09496,-0.23739 0,-0.13057 0.03798,-0.2374 0.08439,-0.2374 0.04641,0 0.112448,-0.14956 0.14674,-0.33235 0.03429,-0.18279 0.09816,-0.33235 0.141931,-0.33235 0.04377,0 0.103053,-0.0898 0.131743,-0.19947 0.02872,-0.10984 0.0977,-0.17133 0.153512,-0.13684 0.05929,0.0366 0.10135,-0.0185 0.10135,-0.13288 0,-0.10754 0.04273,-0.19552 0.09496,-0.19552 0.05223,0 0.09496,-0.1282 0.09496,-0.28488 0,-0.15668 0.04578,-0.28487 0.101741,-0.28487 0.167575,0 0.373051,-0.25778 0.373051,-0.46801 0,-0.10818 0.04578,-0.1967 0.101741,-0.1967 0.05596,0 0.165839,-0.0641 0.244178,-0.14244 0.0797,-0.0797 0.09666,-0.14243 0.03851,-0.14243 -0.0615,0 -0.04043,-0.0969 0.05162,-0.2374 0.08555,-0.13057 0.209816,-0.23739 0.276142,-0.23739 0.06633,0 0.190592,-0.10683 0.276143,-0.2374 0.151747,-0.2316 0.149694,-0.2374 -0.08404,-0.2374 -0.131771,0 -0.239584,0.0427 -0.239584,0.095 0,0.0522 -0.106828,0.095 -0.237395,0.095 -0.13384,0 -0.237396,0.0549 -0.237396,0.12589 0,0.0692 -0.106828,0.22624 -0.237396,0.3489 -0.145376,0.13658 -0.237395,0.17484 -0.237395,0.0987 0,-0.0684 -0.08856,-0.0117 -0.196809,0.12588 -0.177771,0.226 -0.258602,0.2502 -0.835632,0.2502 -0.38065,0 -0.689673,0.048 -0.764644,0.1187 -0.100655,0.095 -0.134524,0.095 -0.169341,0 -0.02394,-0.0653 -0.168156,-0.1187 -0.320484,-0.1187 -0.201022,0 -0.276563,-0.0456 -0.275508,-0.16617 0.002,-0.22926 0.188768,-0.48547 0.248316,-0.34066 0.03336,0.0811 0.113298,0.075 0.301385,-0.0231 0.140795,-0.0735 0.374081,-0.13382 0.518413,-0.13414 0.266617,-6e-4 0.630272,-0.16055 0.756924,-0.33294 0.04114,-0.056 0.0716,-0.0365 0.07424,0.0475 0.0038,0.11952 0.02367,0.11721 0.123762,-0.0144 0.06561,-0.0862 0.224492,-0.1717 0.353074,-0.18992 0.240947,-0.0341 0.471051,-0.19765 0.471351,-0.33495 3.02e-4,-0.13942 0.820164,-0.60027 1.067907,-0.60027 0.13256,0 0.265615,0.0641 0.295677,0.14244 0.03006,0.0783 0.112648,0.14244 0.183523,0.14244 0.195998,0 0.541804,0.413 0.541804,0.64708 0,0.11415 -0.05911,0.20754 -0.131363,0.20754 -0.07225,0 -0.162646,0.0961 -0.200882,0.21366 -0.03824,0.11751 -0.08061,0.2457 -0.09416,0.28487 -0.01356,0.0392 -0.02998,0.15668 -0.03651,0.26114 -0.0085,0.1361 -0.07913,0.18991 -0.249265,0.18991 -0.175726,0 -0.237396,0.0504 -0.237396,0.19393 0,0.19381 -0.02968,0.24106 -0.474791,0.75566 -0.445107,0.51459 -0.474791,0.56184 -0.474791,0.75565 0,0.10666 -0.05341,0.19426 -0.118698,0.19467 -0.135402,8.4e-4 -0.356093,0.42592 -0.356093,0.68588 0,0.0957 -0.0641,0.19856 -0.142437,0.22862 -0.07834,0.0301 -0.142438,0.11418 -0.142438,0.18694 0,0.0727 -0.04273,0.13227 -0.09496,0.13227 -0.05223,0 -0.09496,0.12328 -0.09496,0.27396 0,0.18743 -0.07498,0.32308 -0.237396,0.4295 -0.130567,0.0855 -0.237395,0.21866 -0.237395,0.2958 0,0.0771 -0.03985,0.14024 -0.08856,0.14024 -0.04871,0 -0.118083,0.093 -0.154167,0.20671 -0.03608,0.11369 -0.167157,0.31623 -0.291274,0.45009 -0.124116,0.13385 -0.225666,0.29722 -0.225666,0.36303 0,0.0658 -0.03775,0.11967 -0.08388,0.11967 -0.04613,0 -0.107355,0.0898 -0.136045,0.19947 -0.02872,0.10984 -0.09771,0.17133 -0.153513,0.13684 -0.06174,-0.0382 -0.101349,0.0323 -0.101349,0.18036 0,0.13365 -0.04273,0.243 -0.09496,0.243 -0.05223,0 -0.09496,0.10683 -0.09496,0.23739 0,0.13057 -0.04578,0.2374 -0.101741,0.2374 -0.145596,0 -0.320173,0.20646 -0.358031,0.42342 -0.01785,0.10231 -0.111044,0.28593 -0.207091,0.40803 -0.09605,0.12211 -0.203706,0.35888 -0.239243,0.52616 -0.03554,0.16729 -0.119617,0.36826 -0.186845,0.4466 -0.06723,0.0783 -0.210763,0.30172 -0.318967,0.4964 l -0.196733,0.35396 1.730168,0.0259 1.730169,0.0259 0.02848,0.54601 0.02848,0.54601 h -0.337093 c -0.45367,0 -0.480107,-0.0145 -0.475786,-0.26114 0.0035,-0.20183 -0.03352,-0.21365 -0.669455,-0.21365 -0.40815,0 -0.722736,0.0467 -0.799019,0.1187 -0.100656,0.0949 -0.134524,0.0949 -0.169342,0 -0.02661,-0.0726 -0.221833,-0.1187 -0.502487,-0.1187 -0.280655,0 -0.475874,0.0461 -0.502488,0.1187 -0.03256,0.0888 -0.07245,0.0916 -0.158336,0.011 -0.202303,-0.18975 -0.668262,0.36151 -0.670232,0.79294 -0.0012,0.25783 -0.06822,0.42245 -0.237396,0.58292 -0.129665,0.12299 -0.235755,0.2875 -0.235755,0.36559 0,0.16011 -0.5356553,0.72247 -0.7718343,0.8103 -0.08503,0.0316 -0.202544,0.01 -0.261135,-0.049 z M 136.88471,247.18169 c -0.0351,-0.0568 -0.20871,-0.10323 -0.38583,-0.10323 -0.20652,0 -0.35675,-0.0596 -0.41882,-0.16618 -0.0597,-0.10255 -0.0979,-0.11858 -0.0997,-0.0419 -0.002,0.0684 -0.0456,0.0979 -0.0978,0.0656 -0.0522,-0.0323 -0.095,-0.22709 -0.095,-0.43292 0,-0.39187 -0.11176,-0.4636 -0.45234,-0.29035 -0.61905,0.31491 -0.69847,0.33634 -0.7768,0.2096 -0.0542,-0.0877 -0.0882,-0.0925 -0.11366,-0.0159 -0.0236,0.0707 -0.46999,0.12856 -1.26969,0.16445 -1.44784,0.065 -1.89803,0.0937 -1.89803,0.12134 0,0.0111 -0.35536,0.0424 -0.78969,0.0697 -0.51267,0.0322 -0.88746,0.009 -1.06836,-0.0659 -0.22011,-0.0912 -0.3086,-0.0906 -0.42103,0.003 -0.11147,0.0925 -0.17235,0.0932 -0.28063,0.003 -0.076,-0.0631 -0.18215,-0.0876 -0.23578,-0.0545 -0.0536,0.0331 -0.2467,0.0323 -0.42907,-0.002 -0.2902,-0.0544 -0.33932,-0.10535 -0.39383,-0.40818 -0.0342,-0.19028 -0.0999,-0.39372 -0.14601,-0.45207 -0.0517,-0.0655 -0.0288,-0.15169 0.0599,-0.22529 0.26605,-0.22079 0.16914,-0.3808 -0.23062,-0.3808 -0.20582,0 -0.40064,0.0427 -0.43291,0.095 -0.0323,0.0522 -0.18741,0.095 -0.34474,0.095 -0.15734,0 -0.35016,0.0641 -0.4285,0.14243 -0.0783,0.0783 -0.22484,0.14778 -0.32556,0.15431 -0.30253,0.0196 -0.35408,0.0325 -0.42845,0.10683 -0.0392,0.0392 -0.24784,0.0712 -0.46372,0.0712 -0.21586,0 -0.44554,0.053 -0.51039,0.1179 -0.0939,0.0939 -0.13643,0.0891 -0.2089,-0.0237 -0.0716,-0.11135 -0.10767,-0.11588 -0.16891,-0.0212 -0.10022,0.15495 -0.67707,0.32117 -0.88525,0.25509 -0.0882,-0.028 -0.18785,-0.006 -0.22145,0.0479 -0.0336,0.0543 -0.2249,0.0988 -0.42513,0.0988 -0.23602,0 -0.3833,0.0501 -0.41873,0.14244 -0.0386,0.10049 -0.19535,0.14243 -0.53243,0.14243 -0.26278,0 -0.47778,0.0427 -0.47778,0.095 0,0.0549 -0.3007,0.095 -0.71218,0.095 -0.50567,0 -0.71261,0.0344 -0.71364,0.1187 -10e-4,0.0914 -0.0194,0.0904 -0.0796,-0.004 -0.0624,-0.0984 -0.10268,-0.0936 -0.20008,0.0237 -0.15823,0.19065 -0.56313,0.18943 -0.63656,-0.002 -0.0627,-0.16348 0.13619,-0.61421 0.32406,-0.73424 0.14155,-0.0904 0.15929,-0.35138 0.0239,-0.35138 -0.0522,0 -0.095,0.0441 -0.095,0.0979 0,0.0539 -0.15256,0.0877 -0.33902,0.0751 -0.35326,-0.0238 -0.49266,-0.11732 -0.32723,-0.21955 0.0531,-0.0328 0.0965,-0.13736 0.0965,-0.23233 0,-0.095 0.0641,-0.22588 0.14244,-0.2909 0.0783,-0.065 0.14244,-0.21693 0.14244,-0.33758 0,-0.1365 0.0723,-0.24231 0.19129,-0.28009 0.10522,-0.0334 0.16679,-0.10037 0.13684,-0.14883 -0.0299,-0.0485 -0.009,-0.0881 0.0461,-0.0881 0.0553,0 0.10056,-0.0636 0.10056,-0.14136 0,-0.20926 0.30136,-0.52335 0.50214,-0.52335 0.28385,0 0.5424,0.18265 0.5424,0.38317 0,0.10262 -0.0427,0.18658 -0.095,0.18658 -0.0522,0 -0.095,0.0829 -0.095,0.18418 0,0.14429 0.0771,0.19057 0.3561,0.21366 0.31318,0.0259 0.35984,0.0623 0.38725,0.30208 0.0476,0.4169 -0.0622,0.72319 -0.29513,0.82302 -0.16881,0.0724 -0.12566,0.0857 0.21649,0.0671 0.23502,-0.0128 0.48378,-0.0767 0.55279,-0.14194 0.069,-0.0653 0.35803,-0.1187 0.64226,-0.1187 0.28423,0 0.59097,-0.0377 0.68167,-0.0839 0.61405,-0.31237 0.69891,-0.33562 0.77508,-0.21238 0.0586,0.0948 0.0888,0.0878 0.13447,-0.0312 0.0421,-0.10977 0.1589,-0.14676 0.40993,-0.12986 0.21,0.0141 0.36651,-0.0228 0.38954,-0.0919 0.0221,-0.0663 0.2089,-0.11551 0.4389,-0.11551 0.22023,0 0.44687,-0.0464 0.50364,-0.10323 0.0743,-0.0743 0.12123,-0.0741 0.16749,7.6e-4 0.044,0.0712 0.10935,0.0589 0.20742,-0.0392 0.13308,-0.13309 0.5593,-0.19629 1.04831,-0.15546 0.11358,0.009 0.23361,-0.0266 0.26674,-0.0802 0.0331,-0.0536 0.15994,-0.0974 0.28184,-0.0974 0.1219,0 0.24429,-0.059 0.27198,-0.13119 0.0636,-0.1658 0.57801,-0.26307 1.48931,-0.28162 0.67786,-0.0138 0.71369,-0.004 0.74343,0.20608 0.022,0.15492 -0.0241,0.23505 -0.1546,0.26919 -0.10222,0.0267 -0.233,0.15207 -0.29062,0.27854 -0.0576,0.12646 -0.15898,0.21898 -0.22523,0.2056 -0.0767,-0.0155 -0.10902,0.0571 -0.089,0.19971 0.02,0.14223 -0.006,0.20086 -0.0712,0.16057 -0.0565,-0.0349 -0.10269,-0.001 -0.10269,0.0744 0,0.15024 0.19618,0.25316 0.48256,0.25316 0.10018,0 0.18215,0.0427 0.18215,0.095 0,0.1243 0.81152,0.12215 1.23508,-0.003 0.18245,-0.054 1.22908,-0.12332 2.32585,-0.154 1.09677,-0.0307 2.06609,-0.0933 2.15406,-0.13917 0.088,-0.0459 0.30978,-0.0834 0.49292,-0.0834 0.18315,0 0.35941,-0.0427 0.39168,-0.095 0.0323,-0.0522 0.13524,-0.095 0.22881,-0.095 0.0936,0 0.26525,-0.12415 0.38154,-0.27589 0.16487,-0.21512 0.30197,-0.28311 0.62236,-0.30862 0.22601,-0.018 0.39113,-6.6e-4 0.36691,0.0385 -0.0242,0.0392 0.001,0.0712 0.0566,0.0712 0.16482,0 0.11444,0.20309 -0.0956,0.38524 -0.10789,0.0936 -0.19455,0.18405 -0.1926,0.20106 0.0223,0.19403 -0.14318,0.45824 -0.28703,0.45824 -0.13541,0 -0.17884,0.0692 -0.17884,0.28488 v 0.28487 h 0.95087 c 0.59216,0 1.02203,-0.0444 1.1395,-0.1178 0.14688,-0.0917 0.22878,-0.0927 0.3701,-0.004 0.14607,0.0912 0.1918,0.0864 0.23441,-0.0246 0.0292,-0.0762 0.17469,-0.13797 0.32497,-0.13797 0.14962,0 0.30396,-0.0319 0.34298,-0.0709 0.039,-0.039 0.4198,-0.12079 0.84617,-0.18171 0.58944,-0.0842 0.79286,-0.0843 0.84873,-2.9e-4 0.0521,0.0784 0.10198,0.0622 0.17143,-0.0557 0.085,-0.14416 0.25499,-0.16618 1.28318,-0.16618 1.01226,0 1.19398,0.0228 1.24517,0.15617 0.0792,0.20642 -0.24043,0.4378 -0.51113,0.36999 -0.11431,-0.0286 -0.23434,-0.009 -0.26673,0.0432 -0.0324,0.0524 -0.22208,0.0953 -0.42151,0.0953 -0.21122,0 -0.41345,0.0613 -0.4844,0.14676 -0.067,0.0807 -0.18067,0.12417 -0.25262,0.0966 -0.072,-0.0276 -0.15514,0.0132 -0.18486,0.0906 -0.0439,0.11436 -0.28321,0.14084 -1.27274,0.14084 -0.67028,0 -1.24357,0.0403 -1.27399,0.0895 -0.0688,0.11136 -0.59508,0.18063 -1.76012,0.23168 -0.49615,0.0217 -0.99342,0.0689 -1.10504,0.10485 -0.11477,0.0369 -0.23066,0.0205 -0.26674,-0.0379 z m -17.24003,-1.63833 c 0,-0.0497 -0.0391,-0.0662 -0.0869,-0.0367 -0.0478,0.0295 -0.10751,0 -0.13276,-0.0656 -0.0252,-0.0656 -0.0415,-0.0278 -0.0362,0.0839 0.009,0.197 0.25578,0.21472 0.25578,0.0184 z m -91.729647,1.0603 c 0,-0.0522 0.04525,-0.095 0.100563,-0.095 0.05531,0 0.07415,0.0427 0.04187,0.095 -0.03228,0.0522 -0.07753,0.095 -0.100562,0.095 -0.02303,0 -0.04187,-0.0427 -0.04187,-0.095 z m 90.667307,-0.4447 c 0.0686,-0.0274 0.15045,-0.024 0.182,0.007 0.0316,0.0316 -0.0245,0.054 -0.12463,0.0499 -0.11063,-0.005 -0.13312,-0.0271 -0.0574,-0.0574 z M 13.861215,245.79652 c 0,-0.0783 0.0168,-0.14244 0.03732,-0.14244 0.02053,0 0.06192,0.0641 0.09198,0.14244 0.03006,0.0783 0.01327,0.14244 -0.03732,0.14244 -0.05059,0 -0.09198,-0.0641 -0.09198,-0.14244 z m -5.3176613,-6.79348 c 0,-0.10664 -0.08546,-0.28562 -0.189916,-0.39774 -0.104455,-0.11212 -0.186914,-0.27058 -0.183243,-0.35213 0.0048,-0.10646 0.02969,-0.0947 0.08828,0.0417 0.05417,0.12606 0.08366,0.14202 0.0877,0.0475 0.0033,-0.0783 -0.05825,-0.26581 -0.136888,-0.4166 -0.128948,-0.24725 -0.127097,-0.31014 0.01886,-0.64096 0.08901,-0.20175 0.201577,-0.36682 0.250148,-0.36682 0.04857,0 0.03667,-0.0622 -0.02645,-0.13827 -0.117751,-0.14188 -0.06186,-0.33652 0.09663,-0.33652 0.04888,0 0.307075,-0.21365 0.573764,-0.47479 0.266689,-0.26113 0.51806,-0.47479 0.558601,-0.47479 0.04054,0 0.126908,-0.0641 0.191925,-0.14244 0.06502,-0.0783 0.2600183,-0.14243 0.4333353,-0.14243 0.173318,0 0.341532,-0.0427 0.373811,-0.095 0.03228,-0.0522 0.158421,-0.095 0.280319,-0.095 0.121897,0 0.246228,-0.0641 0.27629,-0.14244 0.03125,-0.0814 0.172949,-0.14243 0.330886,-0.14243 0.151926,0 0.329424,0.0641 0.394441,0.14243 0.131008,0.15786 0.330237,0.1977 0.237395,0.0475 -0.03228,-0.0522 0.0034,-0.095 0.0792,-0.095 0.140693,0 0.253159,0.19329 0.253159,0.43508 0,0.0993 -0.132125,0.13467 -0.503279,0.13467 -0.276803,0 -0.554556,0.0513 -0.617228,0.11395 -0.08863,0.0886 -0.114273,0.0834 -0.115404,-0.0237 -9.31e-4,-0.0884 -0.02642,-0.10104 -0.07122,-0.0353 -0.08819,0.12944 -0.673644,0.41987 -0.84637,0.41987 -0.07161,0 -0.170815,0.10683 -0.220456,0.2374 -0.05526,0.14534 -0.1648143,0.2374 -0.2825253,0.2374 -0.105746,0 -0.192266,0.0539 -0.192266,0.11966 0,0.0658 -0.108558,0.23675 -0.241239,0.37984 -0.132681,0.14309 -0.213229,0.26016 -0.178995,0.26016 0.03423,0 -0.0068,0.10533 -0.09112,0.23406 -0.206601,0.31531 -0.192985,0.58308 0.04677,0.91979 0.193371,0.27156 0.606607,0.35872 0.607297,0.12809 5.51e-4,-0.18422 0.5559683,-0.78815 0.6807843,-0.74025 0.184905,0.0709 0.170795,0.96644 -0.01636,1.03826 -0.07834,0.0301 -0.142438,0.0988 -0.142438,0.15273 0,0.23273 -0.3559063,0.35046 -1.0682803,0.35338 -0.678631,0.003 -0.735926,-0.0121 -0.735926,-0.19086 z m 60.6783083,-3.42013 c 0,-0.0553 0.04273,-0.0742 0.09496,-0.0419 0.05223,0.0323 0.09496,0.0775 0.09496,0.10056 0,0.023 -0.04273,0.0419 -0.09496,0.0419 -0.05223,0 -0.09496,-0.0453 -0.09496,-0.10056 z"
       id="path837"
       inkscape:connector-curvature="0" />
  </g>
</svg>
